<svg width="152" height="81" viewBox="0 0 152 81" fill="none" xmlns="http://www.w3.org/2000/svg">
<path d="M7.60395 76.6313C7.48514 76.9878 7.36631 77.4631 7.36631 77.9384C7.2475 78.4136 7.12875 78.77 7.12875 79.2453L6.41584 76.6313C6.17822 75.9185 5.9406 75.0869 5.82179 74.374C5.58417 73.6612 5.46536 72.8295 5.22773 72.1166H4.5149C4.39609 72.3542 4.39607 72.7106 4.27726 73.067C4.15845 73.4234 4.03966 73.8987 3.92085 74.2551C3.80204 74.7304 3.68324 75.0868 3.56443 75.4432C3.44562 75.7997 3.32679 76.1561 3.32679 76.3938L2.61388 79.0075L2.01983 76.3938C1.90102 75.6809 1.66344 74.968 1.54463 74.1363C1.42582 73.4235 1.18817 72.7106 1.06936 71.8789H0.237671L2.37632 80.4334H3.08916L4.27726 75.9185C4.39607 75.4433 4.51487 74.8493 4.63368 74.374C4.75249 73.8988 4.87132 73.5423 4.87132 73.3047L6.77226 80.4334H7.48517L9.62374 71.8789H8.67327L7.60395 76.6313ZM19.0098 76.6313C18.891 76.9878 18.7722 77.4631 18.7722 77.9384C18.6534 78.4136 18.5345 78.77 18.5345 79.2453L17.8217 76.6313C17.5841 75.9185 17.3465 75.0869 17.2277 74.374C16.99 73.6612 16.8712 72.8295 16.6336 72.1166H15.9207C15.8019 72.3542 15.8019 72.7106 15.6831 73.067C15.5642 73.4234 15.4455 73.8987 15.3266 74.2551C15.2078 74.7304 15.089 75.0868 14.9702 75.4432C14.8514 75.7997 14.7326 76.1561 14.7326 76.3938L14.0198 79.0075L13.4257 76.3938C13.3069 75.6809 13.0692 74.968 12.9504 74.1363C12.8316 73.4235 12.594 72.7106 12.4752 71.8789H11.6435L13.7821 80.4334H14.495L15.6831 75.9185C15.8019 75.4433 15.9207 74.8493 16.0396 74.374C16.1584 73.8988 16.2771 73.5423 16.2771 73.3047L18.1781 80.4334H18.891L21.0295 71.8789H20.0791L19.0098 76.6313ZM30.5344 76.6313C30.4156 76.9878 30.2968 77.4631 30.2968 77.9384C30.178 78.4136 30.0592 78.77 30.0592 79.2453L29.3463 76.6313C29.1087 75.9185 28.871 75.0869 28.7522 74.374C28.5146 73.6612 28.3958 72.8295 28.1582 72.1166H27.4453C27.3265 72.3542 27.3265 72.7106 27.2077 73.067C27.0889 73.4234 26.9701 73.8987 26.8513 74.2551C26.7325 74.7304 26.6137 75.0868 26.4949 75.4432C26.3761 75.7997 26.2572 76.1561 26.2572 76.3938L25.5444 79.0075L24.9504 76.3938C24.8315 75.6809 24.5939 74.968 24.4751 74.1363C24.3563 73.4235 24.1186 72.7106 23.9998 71.8789H23.1682L25.3068 80.4334H26.0196L27.2077 75.9185C27.3265 75.4433 27.4453 74.8493 27.5641 74.374C27.6829 73.8988 27.8018 73.5423 27.8018 73.3047L29.7028 80.4334H30.4156L32.5542 71.8789H31.6037L30.5344 76.6313ZM34.3364 80.6709H35.2868V79.6016H34.3364V80.6709ZM42.4155 79.6016C42.059 79.8392 41.7026 79.9581 41.2274 79.9581C40.8709 79.9581 40.5145 79.8393 40.2769 79.7205C40.0393 79.6017 39.8017 79.3641 39.5641 79.1265C39.4452 78.8889 39.2076 78.6511 39.2076 78.4135C39.0888 78.1759 39.0888 77.8195 39.0888 77.4631V75.0869C39.0888 74.7305 39.0888 74.4927 39.2076 74.2551C39.3264 74.0175 39.4452 73.6611 39.5641 73.5423C39.6829 73.3047 39.9205 73.1858 40.2769 73.067C40.5145 72.9482 40.8709 72.8294 41.2274 72.8294C41.7026 72.8294 42.059 72.9483 42.4155 73.1859C42.7719 73.4236 43.0096 73.7799 43.1284 74.1363L43.9601 73.78C43.7224 73.3048 43.366 72.8295 42.8907 72.5919C42.4155 72.3543 41.8214 72.1166 41.2274 72.1166C40.7521 72.1166 40.2769 72.2354 39.9205 72.3542C39.564 72.473 39.2076 72.7106 38.97 73.067C38.7324 73.3046 38.4948 73.6611 38.3759 74.0176C38.2571 74.374 38.1383 74.7304 38.1383 75.2057V77.7007C38.1383 78.1759 38.1383 78.5323 38.2571 78.8888C38.3759 79.2452 38.6135 79.6017 38.8511 79.8393C39.0888 80.0769 39.4453 80.3145 39.8017 80.5521C40.1581 80.671 40.6333 80.7897 41.1086 80.7897C41.8214 80.7897 42.2967 80.671 42.772 80.3146C43.2472 79.9581 43.6036 79.6016 43.8412 79.0075L43.0095 78.6512C42.8907 79.0076 42.6531 79.364 42.4155 79.6016ZM51.4451 76.0373H47.2867V72.2354H46.4551V80.7897H47.2867V76.869H51.4451V80.7897H52.2768V72.2354H51.4451V76.0373ZM57.9797 72.1166C57.5045 73.5423 56.9104 74.968 56.4352 76.3938C55.9599 77.8195 55.3658 79.2452 54.8906 80.6709H55.7223C55.8411 80.3145 55.9599 79.9581 56.0787 79.7205C56.1975 79.3641 56.3164 79.0076 56.4352 78.6512H60.2371C60.3559 79.0076 60.4747 79.3641 60.5936 79.7205C60.7124 80.077 60.8312 80.4333 60.95 80.6709H61.7817L58.6925 72.1166H57.9797ZM59.9995 77.9384H56.6727C56.7916 77.7007 56.9104 77.2255 57.0292 76.869C57.148 76.3938 57.3856 75.9185 57.5044 75.4432C57.6232 74.968 57.8609 74.6116 57.9797 74.1363C58.0985 73.7799 58.2173 73.4236 58.3361 73.1859L59.049 75.2057L59.9995 77.9384ZM70.6925 72.5919C70.5737 72.8295 70.4548 73.0671 70.336 73.3047C70.2172 73.5423 70.0984 73.7799 69.9796 74.1363C69.8607 74.374 69.742 74.7305 69.6231 74.9681C69.5043 75.2057 69.3855 75.4433 69.2667 75.6809C69.1479 75.9186 69.1479 76.0374 69.0291 76.1562L68.0786 78.4135C68.0786 78.2947 67.9598 78.176 67.841 77.9384C67.7222 77.7007 67.6033 77.4631 67.6033 77.3443C67.4845 77.1067 67.3657 76.8691 67.3657 76.7503C67.2469 76.5126 67.247 76.3938 67.1281 76.275C67.1281 76.1562 67.0093 76.0373 66.8905 75.7997C66.7717 75.5621 66.6529 75.3245 66.5341 75.0869C66.4153 74.8493 66.2964 74.6116 66.1776 74.2551C66.0588 74.0175 65.94 73.6611 65.8212 73.4235C65.7024 73.1859 65.5836 72.9483 65.4648 72.7107C65.346 72.473 65.3459 72.3542 65.2271 72.2354H64.3954V80.7897H65.2271V74.1363C65.2271 74.2551 65.346 74.374 65.4648 74.6116C65.5836 74.8492 65.7024 74.968 65.7024 75.2057C65.8212 75.4433 65.94 75.5621 65.94 75.7997C66.0589 76.0373 66.0588 76.1562 66.1776 76.275L67.7222 79.4828H68.435C68.435 79.364 68.5538 79.2453 68.5538 79.1265C68.6726 79.0077 68.6726 78.77 68.7915 78.5324C68.9103 78.2948 69.0291 78.0572 69.1479 77.9384C69.2667 77.7007 69.3856 77.4631 69.5044 77.3443C69.6232 77.1067 69.7419 76.9879 69.7419 76.7503C69.8607 76.6315 69.8607 76.5126 69.9796 76.3938L70.93 74.2551V80.9086H71.7617V72.3542H70.93C70.93 72.2354 70.8113 72.3543 70.6925 72.5919ZM79.9597 72.7107C79.7221 72.473 79.3656 72.3542 79.128 72.2354C78.7716 72.1166 78.4151 72.1166 78.0587 72.1166H74.9696V80.6709H75.8013V77.1066H78.1775C78.6528 77.1066 79.0092 76.9879 79.2468 76.869C79.6032 76.7502 79.8409 76.5126 80.0785 76.275C80.3161 76.0374 80.4349 75.7997 80.5537 75.4432C80.6726 75.2056 80.6725 74.8492 80.6725 74.6116C80.6725 74.1364 80.5537 73.7799 80.4349 73.4235C80.4349 73.1859 80.1973 72.9483 79.9597 72.7107ZM79.8408 75.3244C79.722 75.5621 79.722 75.6809 79.4844 75.9185C79.3656 76.0373 79.128 76.1562 78.8904 76.275C78.6527 76.3938 78.4151 76.3938 78.0587 76.3938H75.8013V72.9482H78.0587C78.2963 72.9482 78.534 72.9482 78.7716 73.067C79.0092 73.1858 79.2468 73.3047 79.3656 73.4235C79.4844 73.5423 79.7221 73.7799 79.7221 74.0176C79.8409 74.2552 79.8408 74.4928 79.8408 74.7304C79.9596 74.8492 79.9596 75.0868 79.8408 75.3244ZM83.4052 80.6709H84.2368V72.1166H83.4052V80.6709ZM92.5536 72.9482C92.316 72.7106 91.9595 72.473 91.6031 72.3542C91.2467 72.2354 90.7715 72.1166 90.2962 72.1166C89.821 72.1166 89.3457 72.2354 88.9893 72.3542C88.6328 72.473 88.2764 72.7106 88.0388 73.067C87.8012 73.3046 87.5636 73.6611 87.4447 74.0176C87.3259 74.374 87.2071 74.7304 87.2071 75.2057V77.7007C87.2071 78.1759 87.3259 78.5323 87.4447 78.8888C87.5636 79.2452 87.8012 79.6017 88.0388 79.8393C88.2764 80.0769 88.6328 80.3145 88.9893 80.5521C89.3457 80.671 89.821 80.7897 90.2962 80.7897C90.7715 80.7897 91.1279 80.671 91.4843 80.5521C91.8408 80.4333 92.1972 80.1957 92.4348 79.9581C92.6724 79.7205 92.91 79.364 93.0289 79.0075C93.1477 78.6511 93.2665 78.1759 93.2665 77.7007V75.2057C93.2665 74.7304 93.2665 74.374 93.1476 74.0176C92.91 73.5423 92.7912 73.1859 92.5536 72.9482ZM92.4348 77.5819C92.4348 77.9383 92.4348 78.2948 92.316 78.5324C92.1971 78.8889 92.0783 79.1264 91.9595 79.2453C91.7219 79.4829 91.6031 79.6017 91.2467 79.7205C91.0091 79.8393 90.6527 79.9581 90.2962 79.9581C89.9398 79.9581 89.5833 79.8393 89.3457 79.7205C89.1081 79.6017 88.8705 79.3641 88.6329 79.1265C88.514 78.8889 88.2764 78.6511 88.2764 78.4135C88.1576 78.1759 88.1576 77.8195 88.1576 77.4631V75.0869C88.1576 74.7305 88.1576 74.4927 88.2764 74.2551C88.3952 74.0175 88.514 73.6611 88.6329 73.5423C88.7517 73.3047 88.9893 73.1858 89.3457 73.067C89.5833 72.9482 89.9398 72.8294 90.2962 72.8294C90.6527 72.8294 91.0091 72.9482 91.2467 73.067C91.4843 73.1858 91.7219 73.3047 91.9595 73.5423C92.1972 73.7799 92.316 74.0175 92.316 74.2551C92.4348 74.4927 92.4348 74.8492 92.4348 75.2057V77.5819ZM101.702 79.2453L100.158 76.869L97.0684 72.1166H96.2368V80.6709H97.0684V73.5423L98.4941 75.7997L101.702 80.6709H102.534V72.1166H101.702V79.2453ZM108.237 72.1166C107.761 73.5423 107.167 74.968 106.692 76.3938C106.217 77.8195 105.623 79.2452 105.148 80.6709H105.979C106.098 80.3145 106.217 79.9581 106.336 79.7205C106.454 79.3641 106.573 79.0076 106.692 78.6512H110.494C110.613 79.0076 110.732 79.3641 110.85 79.7205C110.969 80.077 111.088 80.4333 111.207 80.6709H112.039L108.949 72.1166H108.237ZM110.256 77.9384H106.93C107.049 77.7007 107.167 77.2255 107.286 76.869C107.405 76.3938 107.643 75.9185 107.761 75.4432C107.88 74.968 108.118 74.6116 108.237 74.1363C108.355 73.7799 108.474 73.4236 108.593 73.1859L109.306 75.2057L110.256 77.9384ZM113.227 72.8294H115.722V80.6709H116.553V72.8294H119.048V72.1166H113.227V72.8294ZM120.949 80.6709H121.9V79.6016H120.949V80.6709ZM129.028 79.6016C128.672 79.8392 128.316 79.9581 127.84 79.9581C127.484 79.9581 127.128 79.8393 126.89 79.7205C126.652 79.6017 126.415 79.3641 126.177 79.1265C126.058 78.8889 125.821 78.6511 125.821 78.4135C125.702 78.1759 125.702 77.8195 125.702 77.4631V75.0869C125.702 74.7305 125.702 74.4927 125.821 74.2551C125.939 74.0175 126.058 73.6611 126.177 73.5423C126.296 73.3047 126.533 73.1858 126.89 73.067C127.128 72.9482 127.484 72.8294 127.84 72.8294C128.316 72.8294 128.672 72.9483 129.028 73.1859C129.385 73.4236 129.623 73.7799 129.741 74.1363L130.454 73.78C130.217 73.3048 129.86 72.8295 129.385 72.5919C128.91 72.2355 128.316 72.1166 127.722 72.1166C127.246 72.1166 126.771 72.2354 126.415 72.3542C126.058 72.473 125.702 72.7106 125.464 73.067C125.227 73.3046 124.989 73.6611 124.87 74.0176C124.751 74.374 124.632 74.7304 124.632 75.2057V77.7007C124.632 78.1759 124.633 78.5323 124.751 78.8888C124.87 79.2452 125.108 79.6017 125.345 79.8393C125.583 80.0769 125.939 80.3145 126.296 80.5521C126.652 80.671 127.128 80.7897 127.603 80.7897C128.316 80.7897 128.791 80.671 129.266 80.3146C129.741 79.9581 130.098 79.6016 130.335 79.0075L129.623 78.6512C129.623 79.0076 129.385 79.364 129.028 79.6016ZM138.058 72.9482C137.82 72.7106 137.464 72.473 137.108 72.3542C136.751 72.2354 136.276 72.1166 135.801 72.1166C135.325 72.1166 134.85 72.2354 134.494 72.3542C134.137 72.473 133.781 72.7106 133.543 73.067C133.306 73.3046 133.068 73.6611 132.949 74.0176C132.83 74.374 132.712 74.7304 132.712 75.2057V77.7007C132.712 78.1759 132.83 78.5323 132.949 78.8888C133.068 79.2452 133.306 79.6017 133.543 79.8393C133.781 80.0769 134.137 80.3145 134.494 80.5521C134.85 80.671 135.325 80.7897 135.801 80.7897C136.276 80.7897 136.632 80.671 136.989 80.5521C137.345 80.4333 137.702 80.1957 137.939 79.9581C138.177 79.7205 138.415 79.364 138.533 79.0075C138.652 78.6511 138.771 78.1759 138.771 77.7007V75.2057C138.771 74.7304 138.771 74.374 138.652 74.0176C138.533 73.5423 138.296 73.1859 138.058 72.9482ZM137.939 77.5819C137.939 77.9383 137.939 78.2948 137.821 78.5324C137.702 78.8889 137.583 79.1264 137.464 79.2453C137.226 79.4829 137.108 79.6017 136.751 79.7205C136.514 79.8393 136.157 79.9581 135.801 79.9581C135.444 79.9581 135.088 79.8393 134.85 79.7205C134.613 79.6017 134.375 79.3641 134.137 79.1265C134.019 78.8889 133.781 78.6511 133.781 78.4135C133.662 78.1759 133.662 77.8195 133.662 77.4631V75.0869C133.662 74.7305 133.662 74.4927 133.781 74.2551C133.9 74.0175 134.019 73.6611 134.137 73.5423C134.256 73.3047 134.494 73.1858 134.85 73.067C135.088 72.9482 135.444 72.8294 135.801 72.8294C136.157 72.8294 136.514 72.9482 136.751 73.067C136.989 73.1858 137.226 73.3047 137.464 73.5423C137.583 73.7799 137.821 74.0175 137.821 74.2551C137.939 74.4927 137.939 74.8492 137.939 75.2057V77.5819ZM148.395 72.1166C148.395 72.2354 148.276 72.3543 148.157 72.5919C148.038 72.8295 147.919 73.0671 147.801 73.3047C147.682 73.5423 147.563 73.7799 147.444 74.1363C147.325 74.374 147.207 74.7305 147.088 74.9681C146.969 75.2057 146.85 75.4433 146.731 75.6809C146.613 75.9186 146.612 76.0374 146.494 76.1562L145.543 78.4135C145.543 78.2947 145.424 78.176 145.306 77.9384C145.187 77.7007 145.068 77.4631 145.068 77.3443C144.949 77.1067 144.83 76.8691 144.83 76.7503C144.711 76.5126 144.711 76.3938 144.593 76.275C144.593 76.1562 144.474 76.0373 144.355 75.7997C144.236 75.5621 144.117 75.3245 143.999 75.0869C143.88 74.8493 143.761 74.6116 143.642 74.2551C143.523 74.0175 143.405 73.6611 143.286 73.4235C143.167 73.1859 143.048 72.9483 142.929 72.7107C142.811 72.473 142.811 72.3542 142.692 72.2354H141.86V80.7897H142.692V74.1363C142.692 74.2551 142.811 74.374 142.929 74.6116C143.048 74.8492 143.167 74.968 143.167 75.2057C143.286 75.4433 143.405 75.5621 143.405 75.7997C143.523 76.0373 143.523 76.1562 143.642 76.275L145.187 79.4828H145.9C145.9 79.364 146.018 79.2453 146.018 79.1265C146.137 79.0077 146.137 78.77 146.256 78.5324C146.375 78.2948 146.494 78.0572 146.612 77.9384C146.731 77.7007 146.85 77.4631 146.969 77.3443C147.088 77.1067 147.207 76.9879 147.207 76.7503C147.325 76.6315 147.325 76.5126 147.444 76.3938L148.395 74.2551V80.9086H149.226V72.3542H148.395V72.1166Z" fill="#EA6109"/>
<path d="M62.4944 2.25743V20.6731C62.4944 23.6434 63.0885 25.782 64.2766 27.5642C67.0092 31.4849 72.1181 34.0987 75.2072 34.9304C78.1775 34.0987 83.4052 31.4849 86.1378 27.5642C87.3259 25.9008 87.92 23.7622 87.92 20.6731V2.25743H62.4944ZM90.0585 0V20.6731C90.0585 24.1186 89.3457 26.7325 87.92 28.8711C84.7121 33.5047 78.6527 36.4749 75.0883 37.3066C71.524 36.4749 65.4647 33.5047 62.2568 28.8711C60.8311 26.7325 60.1182 24.2374 60.1182 20.6731V0H90.0585Z" fill="#EA6109"/>
<path d="M28.871 64.5159H17.4651V47.0508H28.871V49.9021H20.5542V54.1794H27.8016V57.1497H20.5542V61.6644H28.871V64.5159Z" fill="#EA6109"/>
<path d="M84.4744 64.5159V47.0508H81.5042L81.3854 47.5259L74.1379 58.8129V47.0508H71.0488V64.5159H74.0191L74.1379 64.0406L81.3854 52.7536V64.5159H84.4744Z" fill="#EA6109"/>
<path d="M116.435 57.1497H109.187V64.5159H106.098V47.0508H109.187V54.1794H116.435V47.0508H119.524V64.5159H116.435V57.1497Z" fill="#EA6109"/>
<path d="M63.9201 49.9021H56.6726V64.5159H53.5836V47.0508H67.0091V64.5159H63.9201V49.9021Z" fill="#EA6109"/>
<path d="M46.3362 54.417L42.1778 62.4962H40.158L35.9996 54.417V64.5159H32.9105V47.0508H35.9996V47.5259L40.9897 57.2685H41.3461L46.3362 47.5259L46.455 47.0508H49.4252V64.5159H46.3362V54.417Z" fill="#EA6109"/>
<path d="M146.256 64.5159H143.167V49.9021H138.058V47.0508H151.484V49.9021H146.256V64.5159Z" fill="#EA6109"/>
<path d="M10.3365 47.0486V54.296C9.86123 54.5337 8.43554 55.4841 6.29695 55.4841C4.75241 55.4841 3.08905 54.89 3.08905 52.1574V47.0486H0V52.1574C0 55.8405 2.37616 58.3356 6.1781 58.3356C7.72264 58.3356 9.26717 57.8604 10.3365 57.2663V64.5137H13.4256V46.9297H10.3365V47.0486Z" fill="#EA6109"/>
<path d="M122.138 64.5137H125.583L127.128 60.3554H133.543L135.088 64.5137H138.533L131.88 46.9297H128.91L122.138 64.5137ZM128.078 57.5039L130.217 51.3258H130.335L132.474 57.5039H128.078Z" fill="#EA6109"/>
<path d="M101.346 49.782C100.039 47.7623 97.7812 46.5742 95.2862 46.5742C92.7911 46.5742 90.5338 47.7623 89.2269 49.782C88.514 50.8513 88.1575 52.0395 88.1575 53.9404V57.7425C88.1575 59.6434 88.514 60.8315 89.2269 61.9008C90.5338 63.9206 92.7911 65.1087 95.2862 65.1087C97.7812 65.1087 100.039 63.9206 101.346 61.9008C102.058 60.8315 102.415 59.6434 102.415 57.7425V53.9404C102.415 52.0395 102.058 50.7325 101.346 49.782ZM99.3258 57.8612C99.3258 58.9305 99.0882 59.7622 98.6129 60.3562C97.9001 61.4255 96.5931 62.0196 95.2862 62.0196C93.9793 62.0196 92.6724 61.4255 91.9595 60.3562C91.6031 59.7622 91.2467 59.0493 91.2467 57.8612V53.5841C91.2467 52.5148 91.4842 51.683 91.9595 51.0889C92.6724 50.0196 93.9793 49.4257 95.2862 49.4257C96.5931 49.4257 97.9001 50.0196 98.6129 51.0889C98.9694 51.683 99.3258 52.396 99.3258 53.5841V57.8612Z" fill="#EA6109"/>
<path d="M69.1478 22.9293H74.1378V31.9589C71.4052 30.8896 68.0785 28.751 66.1775 26.1371C65.5834 25.3055 64.8706 23.8798 64.8706 20.6719C65.5835 22.0976 67.2468 22.9293 69.1478 22.9293Z" fill="#EA6109"/>
<path d="M70.4547 20.5535H74.6131C75.8012 20.5535 76.3953 19.9594 76.3953 19.9594V31.8405C79.0091 30.6524 82.3358 28.6325 84.118 26.1375C84.712 25.3058 85.4249 23.8801 85.4249 20.6723V4.63281H76.3953C76.3953 6.89022 76.3953 13.9001 76.3953 14.0189C76.3953 14.6129 76.0388 14.9694 75.4448 14.9694H73.7814C73.1874 14.9694 72.8309 14.6129 72.8309 14.0189V4.63281H64.7518V14.9694C64.8706 18.2961 65.2271 20.5535 70.4547 20.5535Z" fill="#EA6109"/>
</svg>
