<svg width="102" height="55" viewBox="0 0 102 55" fill="none" xmlns="http://www.w3.org/2000/svg">
<path d="M5.12031 51.7354C5.04031 51.9761 4.9603 52.297 4.9603 52.6178C4.8803 52.9387 4.80034 53.1793 4.80034 53.5001L4.32031 51.7354C4.16031 51.2542 4.00031 50.6928 3.92031 50.2115C3.76031 49.7303 3.68031 49.1688 3.52031 48.6875H3.04033C2.96033 48.8479 2.96032 49.0885 2.88032 49.3291C2.80032 49.5698 2.72033 49.8906 2.64033 50.1312C2.56033 50.4521 2.48034 50.6927 2.40034 50.9333C2.32034 51.174 2.24033 51.4146 2.24033 51.5751L1.7603 53.3397L1.3603 51.5751C1.2803 51.0938 1.12032 50.6125 1.04032 50.0511C0.960324 49.5698 0.800304 49.0885 0.720304 48.527H0.160294L1.60033 54.3022H2.08032L2.88032 51.2542C2.96032 50.9334 3.04031 50.5324 3.12031 50.2115C3.20031 49.8907 3.28032 49.65 3.28032 49.4896L4.5603 54.3022H5.04033L6.48032 48.527H5.84033L5.12031 51.7354ZM12.8004 51.7354C12.7204 51.9761 12.6403 52.297 12.6403 52.6178C12.5603 52.9387 12.4803 53.1793 12.4803 53.5001L12.0003 51.7354C11.8403 51.2542 11.6803 50.6928 11.6003 50.2115C11.4403 49.7303 11.3603 49.1688 11.2003 48.6875H10.7203C10.6403 48.8479 10.6403 49.0885 10.5603 49.3291C10.4803 49.5698 10.4003 49.8906 10.3203 50.1312C10.2403 50.4521 10.1603 50.6927 10.0803 50.9333C10.0003 51.174 9.92032 51.4146 9.92032 51.5751L9.44034 53.3397L9.04034 51.5751C8.96034 51.0938 8.80032 50.6125 8.72032 50.0511C8.64032 49.5698 8.48034 49.0885 8.40034 48.527H7.84033L9.28033 54.3022H9.76031L10.5603 51.2542C10.6403 50.9334 10.7203 50.5324 10.8003 50.2115C10.8803 49.8907 10.9603 49.65 10.9603 49.4896L12.2403 54.3022H12.7203L14.1603 48.527H13.5203L12.8004 51.7354ZM20.5603 51.7354C20.4803 51.9761 20.4004 52.297 20.4004 52.6178C20.3204 52.9387 20.2404 53.1793 20.2404 53.5001L19.7603 51.7354C19.6003 51.2542 19.4403 50.6928 19.3603 50.2115C19.2003 49.7303 19.1203 49.1688 18.9603 48.6875H18.4803C18.4003 48.8479 18.4003 49.0885 18.3203 49.3291C18.2403 49.5698 18.1603 49.8906 18.0803 50.1312C18.0003 50.4521 17.9203 50.6927 17.8403 50.9333C17.7603 51.174 17.6803 51.4146 17.6803 51.5751L17.2004 53.3397L16.8004 51.5751C16.7204 51.0938 16.5603 50.6125 16.4803 50.0511C16.4003 49.5698 16.2403 49.0885 16.1603 48.527H15.6004L17.0403 54.3022H17.5203L18.3203 51.2542C18.4003 50.9334 18.4803 50.5324 18.5603 50.2115C18.6403 49.8907 18.7203 49.65 18.7203 49.4896L20.0004 54.3022H20.4803L21.9203 48.527H21.2803L20.5603 51.7354ZM23.1203 54.4626H23.7603V53.7407H23.1203V54.4626ZM28.5603 53.7407C28.3203 53.9011 28.0803 53.9814 27.7603 53.9814C27.5203 53.9814 27.2803 53.9012 27.1203 53.821C26.9603 53.7408 26.8004 53.5804 26.6404 53.4199C26.5604 53.2595 26.4004 53.099 26.4004 52.9386C26.3204 52.7782 26.3203 52.5376 26.3203 52.297V50.6928C26.3203 50.4521 26.3204 50.2917 26.4004 50.1312C26.4804 49.9708 26.5604 49.7302 26.6404 49.65C26.7204 49.4896 26.8803 49.4094 27.1203 49.3291C27.2803 49.2489 27.5203 49.1688 27.7603 49.1688C28.0803 49.1688 28.3203 49.249 28.5603 49.4094C28.8003 49.5698 28.9604 49.8104 29.0404 50.0511L29.6004 49.8105C29.4404 49.4896 29.2004 49.1688 28.8804 49.0084C28.5604 48.848 28.1603 48.6875 27.7603 48.6875C27.4403 48.6875 27.1204 48.7677 26.8804 48.8479C26.6404 48.9281 26.4004 49.0885 26.2404 49.3291C26.0804 49.4896 25.9204 49.7302 25.8404 49.9709C25.7604 50.2115 25.6803 50.4521 25.6803 50.773V52.4574C25.6803 52.7782 25.6803 53.0188 25.7603 53.2595C25.8403 53.5001 26.0003 53.7408 26.1603 53.9012C26.3203 54.0616 26.5604 54.222 26.8004 54.3824C27.0404 54.4626 27.3604 54.5428 27.6804 54.5428C28.1604 54.5428 28.4804 54.4627 28.8004 54.222C29.1204 53.9814 29.3603 53.7407 29.5203 53.3397L28.9603 53.0991C28.8803 53.3397 28.7203 53.5803 28.5603 53.7407ZM34.6404 51.3344H31.8404V48.7677H31.2804V54.5428H31.8404V51.8959H34.6404V54.5428H35.2004V48.7677H34.6404V51.3344ZM39.0404 48.6875C38.7204 49.65 38.3204 50.6125 38.0004 51.5751C37.6804 52.5376 37.2803 53.5001 36.9603 54.4626H37.5204C37.6004 54.222 37.6803 53.9814 37.7603 53.821C37.8403 53.5804 37.9204 53.3397 38.0004 53.0991H40.5604C40.6404 53.3397 40.7204 53.5804 40.8004 53.821C40.8804 54.0616 40.9604 54.3022 41.0404 54.4626H41.6004L39.5204 48.6875H39.0404ZM40.4004 52.6178H38.1603C38.2403 52.4574 38.3204 52.1366 38.4004 51.8959C38.4804 51.5751 38.6404 51.2542 38.7204 50.9333C38.8004 50.6125 38.9604 50.3719 39.0404 50.0511C39.1204 49.8104 39.2004 49.5698 39.2804 49.4094L39.7603 50.773L40.4004 52.6178ZM47.6004 49.0084C47.5204 49.1688 47.4404 49.3292 47.3604 49.4896C47.2804 49.65 47.2004 49.8104 47.1204 50.0511C47.0404 50.2115 46.9604 50.4522 46.8804 50.6126C46.8004 50.773 46.7204 50.9334 46.6404 51.0938C46.5604 51.2542 46.5604 51.3345 46.4804 51.4147L45.8404 52.9386C45.8404 52.8584 45.7604 52.7783 45.6804 52.6178C45.6004 52.4574 45.5204 52.297 45.5204 52.2168C45.4404 52.0564 45.3604 51.8959 45.3604 51.8157C45.2804 51.6553 45.2804 51.5751 45.2004 51.4949C45.2004 51.4147 45.1204 51.3344 45.0404 51.174C44.9604 51.0136 44.8804 50.8532 44.8004 50.6928C44.7204 50.5324 44.6404 50.3719 44.5604 50.1312C44.4804 49.9708 44.4004 49.7302 44.3204 49.5698C44.2404 49.4094 44.1604 49.249 44.0804 49.0886C44.0004 48.9281 44.0004 48.8479 43.9204 48.7677H43.3604V54.5428H43.9204V50.0511C43.9204 50.1313 44.0004 50.2115 44.0804 50.3719C44.1604 50.5323 44.2404 50.6125 44.2404 50.773C44.3204 50.9334 44.4004 51.0136 44.4004 51.174C44.4804 51.3344 44.4804 51.4147 44.5604 51.4949L45.6004 53.6605H46.0804C46.0804 53.5803 46.1604 53.5002 46.1604 53.4199C46.2404 53.3397 46.2404 53.1793 46.3204 53.0189C46.4004 52.8585 46.4804 52.698 46.5604 52.6178C46.6404 52.4574 46.7204 52.297 46.8004 52.2168C46.8804 52.0564 46.9604 51.9762 46.9604 51.8157C47.0404 51.7355 47.0404 51.6553 47.1204 51.5751L47.7604 50.1312V54.6231H48.3204V48.8479H47.7604C47.7604 48.7677 47.6804 48.848 47.6004 49.0084ZM53.8404 49.0886C53.6804 48.9281 53.4404 48.8479 53.2804 48.7677C53.0404 48.6875 52.8004 48.6875 52.5604 48.6875H50.4804V54.4626H51.0404V52.0563H52.6404C52.9604 52.0563 53.2004 51.9761 53.3604 51.8959C53.6004 51.8157 53.7604 51.6553 53.9204 51.4949C54.0804 51.3345 54.1604 51.174 54.2404 50.9333C54.3204 50.7729 54.3204 50.5323 54.3204 50.3719C54.3204 50.0511 54.2404 49.8104 54.1604 49.5698C54.1604 49.4094 54.0004 49.249 53.8404 49.0886ZM53.7604 50.8532C53.6804 51.0136 53.6804 51.0938 53.5204 51.2542C53.4404 51.3344 53.2804 51.4147 53.1204 51.4949C52.9604 51.5751 52.8004 51.5751 52.5604 51.5751H51.0404V49.249H52.5604C52.7204 49.249 52.8804 49.2489 53.0404 49.3291C53.2004 49.4094 53.3604 49.4896 53.4404 49.5698C53.5204 49.65 53.6804 49.8104 53.6804 49.9709C53.7604 50.1313 53.7604 50.2917 53.7604 50.4521C53.8404 50.5323 53.8404 50.6927 53.7604 50.8532ZM56.1604 54.4626H56.7204V48.6875H56.1604V54.4626ZM62.3204 49.249C62.1604 49.0885 61.9204 48.9281 61.6804 48.8479C61.4404 48.7677 61.1204 48.6875 60.8004 48.6875C60.4804 48.6875 60.1604 48.7677 59.9204 48.8479C59.6804 48.9281 59.4404 49.0885 59.2804 49.3291C59.1204 49.4896 58.9604 49.7302 58.8804 49.9709C58.8004 50.2115 58.7204 50.4521 58.7204 50.773V52.4574C58.7204 52.7782 58.8004 53.0188 58.8804 53.2595C58.9604 53.5001 59.1204 53.7408 59.2804 53.9012C59.4404 54.0616 59.6804 54.222 59.9204 54.3824C60.1604 54.4626 60.4804 54.5428 60.8004 54.5428C61.1204 54.5428 61.3604 54.4626 61.6004 54.3824C61.8404 54.3022 62.0804 54.1418 62.2404 53.9814C62.4004 53.821 62.5604 53.5803 62.6404 53.3397C62.7204 53.099 62.8004 52.7782 62.8004 52.4574V50.773C62.8004 50.4521 62.8004 50.2115 62.7204 49.9709C62.5604 49.65 62.4804 49.4094 62.3204 49.249ZM62.2404 52.3772C62.2404 52.6178 62.2404 52.8585 62.1604 53.0189C62.0804 53.2595 62.0004 53.4199 61.9204 53.5001C61.7604 53.6606 61.6804 53.7408 61.4404 53.821C61.2804 53.9012 61.0404 53.9814 60.8004 53.9814C60.5604 53.9814 60.3204 53.9012 60.1604 53.821C60.0004 53.7408 59.8404 53.5804 59.6804 53.4199C59.6004 53.2595 59.4404 53.099 59.4404 52.9386C59.3604 52.7782 59.3604 52.5376 59.3604 52.297V50.6928C59.3604 50.4521 59.3604 50.2917 59.4404 50.1312C59.5204 49.9708 59.6004 49.7302 59.6804 49.65C59.7604 49.4896 59.9204 49.4094 60.1604 49.3291C60.3204 49.2489 60.5604 49.1688 60.8004 49.1688C61.0404 49.1688 61.2804 49.2489 61.4404 49.3291C61.6004 49.4094 61.7604 49.4896 61.9204 49.65C62.0804 49.8104 62.1604 49.9708 62.1604 50.1312C62.2404 50.2917 62.2404 50.5323 62.2404 50.773V52.3772ZM68.4804 53.5001L67.4404 51.8959L65.3604 48.6875H64.8004V54.4626H65.3604V49.65L66.3204 51.174L68.4804 54.4626H69.0404V48.6875H68.4804V53.5001ZM72.8804 48.6875C72.5604 49.65 72.1604 50.6125 71.8404 51.5751C71.5204 52.5376 71.1204 53.5001 70.8004 54.4626H71.3604C71.4404 54.222 71.5204 53.9814 71.6004 53.821C71.6804 53.5804 71.7604 53.3397 71.8404 53.0991H74.4004C74.4804 53.3397 74.5604 53.5804 74.6404 53.821C74.7204 54.0616 74.8004 54.3022 74.8804 54.4626H75.4404L73.3604 48.6875H72.8804ZM74.2404 52.6178H72.0004C72.0804 52.4574 72.1604 52.1366 72.2404 51.8959C72.3204 51.5751 72.4804 51.2542 72.5604 50.9333C72.6404 50.6125 72.8004 50.3719 72.8804 50.0511C72.9604 49.8104 73.0404 49.5698 73.1204 49.4094L73.6004 50.773L74.2404 52.6178ZM76.2404 49.1688H77.9204V54.4626H78.4804V49.1688H80.1604V48.6875H76.2404V49.1688ZM81.4404 54.4626H82.0804V53.7407H81.4404V54.4626ZM86.8804 53.7407C86.6404 53.9011 86.4004 53.9814 86.0804 53.9814C85.8404 53.9814 85.6004 53.9012 85.4404 53.821C85.2804 53.7408 85.1204 53.5804 84.9604 53.4199C84.8804 53.2595 84.7204 53.099 84.7204 52.9386C84.6404 52.7782 84.6404 52.5376 84.6404 52.297V50.6928C84.6404 50.4521 84.6404 50.2917 84.7204 50.1312C84.8004 49.9708 84.8804 49.7302 84.9604 49.65C85.0404 49.4896 85.2004 49.4094 85.4404 49.3291C85.6004 49.2489 85.8404 49.1688 86.0804 49.1688C86.4004 49.1688 86.6404 49.249 86.8804 49.4094C87.1204 49.5698 87.2804 49.8104 87.3604 50.0511L87.8404 49.8105C87.6805 49.4896 87.4404 49.1688 87.1204 49.0084C86.8004 48.7677 86.4005 48.6875 86.0005 48.6875C85.6805 48.6875 85.3604 48.7677 85.1204 48.8479C84.8804 48.9281 84.6404 49.0885 84.4804 49.3291C84.3204 49.4896 84.1604 49.7302 84.0804 49.9709C84.0004 50.2115 83.9204 50.4521 83.9204 50.773V52.4574C83.9204 52.7782 83.9205 53.0188 84.0005 53.2595C84.0805 53.5001 84.2405 53.7408 84.4005 53.9012C84.5605 54.0616 84.8004 54.222 85.0404 54.3824C85.2804 54.4626 85.6004 54.5428 85.9204 54.5428C86.4004 54.5428 86.7204 54.4627 87.0404 54.222C87.3605 53.9814 87.6004 53.7407 87.7604 53.3397L87.2804 53.0991C87.2804 53.3397 87.1204 53.5803 86.8804 53.7407ZM92.9604 49.249C92.8004 49.0885 92.5604 48.9281 92.3204 48.8479C92.0804 48.7677 91.7605 48.6875 91.4405 48.6875C91.1205 48.6875 90.8004 48.7677 90.5604 48.8479C90.3204 48.9281 90.0804 49.0885 89.9204 49.3291C89.7604 49.4896 89.6004 49.7302 89.5204 49.9709C89.4404 50.2115 89.3604 50.4521 89.3604 50.773V52.4574C89.3604 52.7782 89.4404 53.0188 89.5204 53.2595C89.6004 53.5001 89.7604 53.7408 89.9204 53.9012C90.0804 54.0616 90.3204 54.222 90.5604 54.3824C90.8004 54.4626 91.1205 54.5428 91.4405 54.5428C91.7605 54.5428 92.0005 54.4626 92.2405 54.3824C92.4805 54.3022 92.7204 54.1418 92.8804 53.9814C93.0404 53.821 93.2004 53.5803 93.2804 53.3397C93.3604 53.099 93.4405 52.7782 93.4405 52.4574V50.773C93.4405 50.4521 93.4404 50.2115 93.3604 49.9709C93.2804 49.65 93.1204 49.4094 92.9604 49.249ZM92.8804 52.3772C92.8804 52.6178 92.8805 52.8585 92.8005 53.0189C92.7205 53.2595 92.6404 53.4199 92.5604 53.5001C92.4004 53.6606 92.3204 53.7408 92.0804 53.821C91.9204 53.9012 91.6805 53.9814 91.4405 53.9814C91.2005 53.9814 90.9605 53.9012 90.8005 53.821C90.6405 53.7408 90.4804 53.5804 90.3204 53.4199C90.2404 53.2595 90.0804 53.099 90.0804 52.9386C90.0004 52.7782 90.0005 52.5376 90.0005 52.297V50.6928C90.0005 50.4521 90.0004 50.2917 90.0804 50.1312C90.1604 49.9708 90.2404 49.7302 90.3204 49.65C90.4004 49.4896 90.5605 49.4094 90.8005 49.3291C90.9605 49.2489 91.2005 49.1688 91.4405 49.1688C91.6805 49.1688 91.9204 49.2489 92.0804 49.3291C92.2404 49.4094 92.4004 49.4896 92.5604 49.65C92.6404 49.8104 92.8005 49.9708 92.8005 50.1312C92.8805 50.2917 92.8804 50.5323 92.8804 50.773V52.3772ZM99.9204 48.6875C99.9204 48.7677 99.8404 48.848 99.7604 49.0084C99.6804 49.1688 99.6004 49.3292 99.5204 49.4896C99.4404 49.65 99.3605 49.8104 99.2805 50.0511C99.2005 50.2115 99.1205 50.4522 99.0405 50.6126C98.9605 50.773 98.8805 50.9334 98.8005 51.0938C98.7205 51.2542 98.7205 51.3345 98.6405 51.4147L98.0005 52.9386C98.0005 52.8584 97.9205 52.7783 97.8405 52.6178C97.7605 52.4574 97.6805 52.297 97.6805 52.2168C97.6005 52.0564 97.5204 51.8959 97.5204 51.8157C97.4404 51.6553 97.4404 51.5751 97.3604 51.4949C97.3604 51.4147 97.2805 51.3344 97.2005 51.174C97.1205 51.0136 97.0404 50.8532 96.9604 50.6928C96.8804 50.5324 96.8004 50.3719 96.7204 50.1312C96.6404 49.9708 96.5604 49.7302 96.4805 49.5698C96.4005 49.4094 96.3205 49.249 96.2405 49.0886C96.1605 48.9281 96.1605 48.8479 96.0805 48.7677H95.5204V54.5428H96.0805V50.0511C96.0805 50.1313 96.1605 50.2115 96.2405 50.3719C96.3205 50.5323 96.4005 50.6125 96.4005 50.773C96.4805 50.9334 96.5604 51.0136 96.5604 51.174C96.6404 51.3344 96.6404 51.4147 96.7204 51.4949L97.7604 53.6605H98.2405C98.2405 53.5803 98.3204 53.5002 98.3204 53.4199C98.4004 53.3397 98.4005 53.1793 98.4805 53.0189C98.5605 52.8585 98.6404 52.698 98.7204 52.6178C98.8004 52.4574 98.8804 52.297 98.9604 52.2168C99.0404 52.0564 99.1204 51.9762 99.1204 51.8157C99.2004 51.7355 99.2005 51.6553 99.2805 51.5751L99.9204 50.1312V54.6231H100.48V48.8479H99.9204V48.6875Z" fill="#4F4F4F"/>
<path d="M42.0802 1.52401V13.9566C42.0802 15.9619 42.4802 17.4057 43.2802 18.6088C45.1202 21.2558 48.5602 23.0204 50.6402 23.5818C52.6402 23.0204 56.1602 21.2558 58.0002 18.6088C58.8002 17.4859 59.2002 16.0421 59.2002 13.9566V1.52401H42.0802ZM60.6402 0V13.9566C60.6402 16.2827 60.1602 18.0473 59.2002 19.4911C57.0402 22.6193 52.9602 24.6246 50.5602 25.186C48.1602 24.6246 44.0802 22.6193 41.9202 19.4911C40.9602 18.0473 40.4802 16.3629 40.4802 13.9566V0H60.6402Z" fill="#4F4F4F"/>
<path d="M19.4399 43.5541H11.7598V31.7632H19.4399V33.6882H13.8399V36.5759H18.7198V38.5811H13.8399V41.629H19.4399V43.5541Z" fill="#4F4F4F"/>
<path d="M56.8806 43.5541V31.7632H54.8806L54.8006 32.084L49.9205 39.704V31.7632H47.8406V43.5541H49.8406L49.9205 43.2332L54.8006 35.6133V43.5541H56.8806Z" fill="#4F4F4F"/>
<path d="M78.4 38.5811H73.52V43.5541H71.44V31.7632H73.52V36.5759H78.4V31.7632H80.48V43.5541H78.4V38.5811Z" fill="#4F4F4F"/>
<path d="M43.04 33.6882H38.1599V43.5541H36.08V31.7632H45.12V43.5541H43.04V33.6882Z" fill="#4F4F4F"/>
<path d="M31.2001 36.7362L28.4001 42.1906H27.0401L24.2401 36.7362V43.5541H22.16V31.7632H24.2401V32.084L27.6001 38.6613H27.8401L31.2001 32.084L31.2801 31.7632H33.2801V43.5541H31.2001V36.7362Z" fill="#4F4F4F"/>
<path d="M98.48 43.5541H96.4V33.6882H92.9599V31.7632H102V33.6882H98.48V43.5541Z" fill="#4F4F4F"/>
<path d="M6.95997 31.7633V36.6561C6.63997 36.8166 5.68 37.4582 4.24 37.4582C3.19999 37.4582 2.07998 37.0571 2.07998 35.2123V31.7633H0V35.2123C0 37.6988 1.59996 39.3833 4.15997 39.3833C5.19997 39.3833 6.23997 39.0624 6.95997 38.6614V43.5542H9.04V31.683H6.95997V31.7633Z" fill="#4F4F4F"/>
<path d="M82.2405 43.5546H84.5605L85.6005 40.7472H89.9205L90.9605 43.5546H93.2805L88.8005 31.6834H86.8005L82.2405 43.5546ZM86.2405 38.8221L87.6805 34.6512H87.7605L89.2005 38.8221H86.2405Z" fill="#4F4F4F"/>
<path d="M68.2402 33.608C67.3602 32.2444 65.8401 31.4423 64.1601 31.4423C62.4801 31.4423 60.9602 32.2444 60.0802 33.608C59.6002 34.3299 59.3601 35.132 59.3601 36.4153V38.9821C59.3601 40.2655 59.6002 41.0676 60.0802 41.7895C60.9602 43.153 62.4801 43.9551 64.1601 43.9551C65.8401 43.9551 67.3602 43.153 68.2402 41.7895C68.7202 41.0676 68.9602 40.2655 68.9602 38.9821V36.4153C68.9602 35.132 68.7202 34.2496 68.2402 33.608ZM66.8802 39.0623C66.8802 39.7842 66.7202 40.3456 66.4002 40.7467C65.9202 41.4686 65.0401 41.8697 64.1601 41.8697C63.2801 41.8697 62.4002 41.4686 61.9202 40.7467C61.6802 40.3456 61.4402 39.8644 61.4402 39.0623V36.1747C61.4402 35.4529 61.6002 34.8913 61.9202 34.4903C62.4002 33.7684 63.2801 33.3674 64.1601 33.3674C65.0401 33.3674 65.9202 33.7684 66.4002 34.4903C66.6402 34.8913 66.8802 35.3726 66.8802 36.1747V39.0623Z" fill="#4F4F4F"/>
<path d="M46.5598 15.4806H49.9198V21.5766C48.0798 20.8547 45.8398 19.4109 44.5598 17.6463C44.1598 17.0848 43.6798 16.1223 43.6798 13.9566C44.1598 14.9191 45.2798 15.4806 46.5598 15.4806Z" fill="#4F4F4F"/>
<path d="M47.44 13.877H50.24C51.04 13.877 51.44 13.4759 51.44 13.4759V21.4969C53.2 20.6948 55.44 19.3312 56.64 17.6468C57.04 17.0853 57.52 16.1228 57.52 13.9572V3.12878H51.44C51.44 4.65278 51.44 9.3852 51.44 9.46541C51.44 9.86646 51.2 10.1071 50.8 10.1071H49.68C49.28 10.1071 49.04 9.86646 49.04 9.46541V3.12878H43.6V10.1071C43.68 12.353 43.92 13.877 47.44 13.877Z" fill="#4F4F4F"/>
</svg>
