<svg width="101" height="75" viewBox="0 0 101 75" fill="none" xmlns="http://www.w3.org/2000/svg">
<rect x="10.9532" width="30.6689" height="74.4816" fill="#E53B46"/>
<rect x="41.6221" width="30.6689" height="74.4816" fill="#4221D6"/>
<path d="M51.6865 58.4286H49.2429V56.9886H55.8975V58.4286H53.4538V64.625H51.6865V58.4286ZM64.0517 56.9886L60.7462 64.625H59.0007L55.7062 56.9886H57.6153L59.9389 62.4432L62.2953 56.9886H64.0517Z" fill="#E5E5E5"/>
<path d="M51.6865 58.4286H52.4658V57.6494H51.6865V58.4286ZM49.2429 58.4286H48.4637V59.2079H49.2429V58.4286ZM49.2429 56.9886V56.2094H48.4637V56.9886H49.2429ZM55.8975 56.9886H56.6767V56.2094H55.8975V56.9886ZM55.8975 58.4286V59.2079H56.6767V58.4286H55.8975ZM53.4538 58.4286V57.6494H52.6746V58.4286H53.4538ZM53.4538 64.625V65.4042H54.233V64.625H53.4538ZM51.6865 64.625H50.9073V65.4042H51.6865V64.625ZM51.6865 57.6494H49.2429V59.2079H51.6865V57.6494ZM50.0221 58.4286V56.9886H48.4637V58.4286H50.0221ZM49.2429 57.7679H55.8975V56.2094H49.2429V57.7679ZM55.1182 56.9886V58.4286H56.6767V56.9886H55.1182ZM55.8975 57.6494H53.4538V59.2079H55.8975V57.6494ZM52.6746 58.4286V64.625H54.233V58.4286H52.6746ZM53.4538 63.8458H51.6865V65.4042H53.4538V63.8458ZM52.4658 64.625V58.4286H50.9073V64.625H52.4658ZM64.0517 56.9886L64.7668 57.2982L65.238 56.2094H64.0517V56.9886ZM60.7462 64.625V65.4042H61.258L61.4613 64.9345L60.7462 64.625ZM59.0007 64.625L58.2853 64.9337L58.4883 65.4042H59.0007V64.625ZM55.7062 56.9886V56.2094H54.5214L54.9907 57.2973L55.7062 56.9886ZM57.6153 56.9886L58.3322 56.6832L58.1303 56.2094H57.6153V56.9886ZM59.9389 62.4432L59.222 62.7486L59.9339 64.4196L60.6543 62.7522L59.9389 62.4432ZM62.2953 56.9886V56.2094H61.7831L61.58 56.6796L62.2953 56.9886ZM63.3366 56.6791L60.0311 64.3155L61.4613 64.9345L64.7668 57.2982L63.3366 56.6791ZM60.7462 63.8458H59.0007V65.4042H60.7462V63.8458ZM59.7162 64.3163L56.4217 56.68L54.9907 57.2973L58.2853 64.9337L59.7162 64.3163ZM55.7062 57.7679H57.6153V56.2094H55.7062V57.7679ZM56.8984 57.294L59.222 62.7486L60.6558 62.1378L58.3322 56.6832L56.8984 57.294ZM60.6543 62.7522L63.0106 57.2977L61.58 56.6796L59.2236 62.1342L60.6543 62.7522ZM62.2953 57.7679H64.0517V56.2094H62.2953V57.7679Z" fill="#E5E5E5"/>
<path d="M4.97815 20.9089L16.1803 54.9301L77.9993 31.6961L68.0419 13.8557L64.7227 12.611L59.3291 12.1961L53.1057 11.7812H48.127H43.5632L37.7547 12.1961C32.9143 12.611 22.9845 13.4408 21.9888 13.4408C20.7441 13.4408 7.46751 17.1749 6.63772 17.1749C5.97389 17.1749 5.25474 19.6642 4.97815 20.9089Z" fill="white"/>
<path fill-rule="evenodd" clip-rule="evenodd" d="M31.1395 11.2918C28.3383 11.5617 23.3206 12.2761 19.9891 12.8793C16.6576 13.4824 11.7661 14.578 9.11884 15.3132C6.47103 16.0489 4.24857 16.7284 4.17949 16.8238C4.11096 16.9187 3.14223 19.4671 2.02719 22.4867L0 27.9768L3.55561 41.574C5.51101 49.0523 7.75578 57.5025 8.54392 60.352C9.33152 63.2015 10.0506 65.6146 10.1409 65.7139C10.2312 65.8137 12.4672 64.4432 15.1101 62.6686C17.7531 60.8935 22.0816 58.1635 24.7294 56.6016C27.3777 55.0403 31.9924 52.5306 34.985 51.0243C37.9777 49.5186 40.4966 48.3636 40.5825 48.4568C40.6679 48.5506 41.4833 50.2821 42.3938 52.3054L44.0489 55.9837L48.5678 53.203C51.0536 51.6733 53.4561 50.3448 53.9064 50.2499C54.3573 50.1556 56.8066 49.1091 59.3495 47.9251C61.8923 46.7412 66.9393 44.6557 70.5651 43.2913C74.1909 41.9263 80.0652 39.945 83.6192 38.8876C87.1732 37.8307 92.1615 36.4509 94.7044 35.8216C97.2472 35.1928 99.6899 34.5509 100.133 34.3955C100.652 34.2134 100.116 33.7438 98.6287 33.0763C97.3587 32.5064 94.0593 31.3208 91.2967 30.4417C88.5341 29.5632 83.895 28.3072 80.9877 27.6512L75.7019 26.4585L72.0903 19.49L68.4781 12.5215L63.2341 11.848C60.3497 11.4777 53.0944 11.0905 47.1112 10.9875C41.1281 10.8844 33.9407 11.0213 31.1395 11.2918ZM52.1768 12.9006L55.0661 12.9066L56.6641 16.4393C57.5425 18.3824 58.2616 20.223 58.2616 20.5295C58.2616 20.8359 57.3016 21.0868 56.1283 21.0868C54.1719 21.0868 53.9423 20.9281 53.3663 19.1781C53.0209 18.1283 52.5352 17.2694 52.2872 17.2694C52.0392 17.2694 52.1055 18.149 52.4346 19.2244C52.9426 20.8828 53.5844 21.4576 56.6614 23.0113C60.1213 24.7581 60.3546 25.0024 61.7112 28.2822C62.4933 30.1734 63.1999 32.0549 63.2809 32.4623C63.3815 32.9667 61.9565 33.6135 58.8273 34.4839C56.2964 35.1879 54.1751 35.7136 54.1137 35.6515C54.0517 35.5893 53.5001 34.2641 52.8877 32.706L51.7743 29.8735L54.2023 29.5081C55.5371 29.3074 56.6233 28.9873 56.6152 28.7959C56.6075 28.605 55.0873 27.5901 53.2374 26.5403L49.8743 24.6316L47.5415 18.6327C46.2589 15.3334 45.2086 12.5406 45.208 12.4261C45.208 12.3121 46.1256 12.3705 47.2472 12.5564C48.3693 12.7424 50.5874 12.8973 52.1768 12.9006ZM48.2143 24.1549C50.8985 30.3414 53.1623 35.5768 53.2456 35.7889C53.3288 36.001 52.3851 36.4788 51.1493 36.8501C49.913 37.2215 48.5847 37.6469 48.1969 37.7963C47.7574 37.9654 47.251 37.335 46.8518 36.1216C46.4993 35.051 46.1191 34.1752 46.0071 34.1752C45.8945 34.1752 45.1678 34.4653 44.3916 34.8198C43.1792 35.3733 43.0035 35.7578 43.1422 37.5471L43.3038 39.6298L37.0731 42.3353C33.6464 43.8235 30.8126 44.9889 30.7762 44.9251C30.7392 44.8613 28.6788 38.111 26.198 29.9242C23.7166 21.7369 21.8031 14.9222 21.9445 14.7804C22.0859 14.638 23.4952 14.4652 25.0759 14.3959L27.9494 14.2699L31.1895 24.9043C32.9714 30.7531 34.508 35.6198 34.6048 35.7191C34.7011 35.8183 35.2472 35.6487 35.8183 35.3423C36.8376 34.7953 36.8338 34.6011 35.6154 25.0728C34.9328 19.7311 34.3639 14.8082 34.3514 14.1336C34.3302 12.9584 34.5183 12.9066 38.8316 12.9066H43.3342L48.2143 24.1549ZM59.5425 13.2659C61.5453 13.5975 61.7248 13.8042 63.5638 17.8954C64.6222 20.2508 65.8232 22.1775 66.2328 22.1775C66.7403 22.1775 66.2709 20.77 64.7511 17.7394C62.6222 13.4944 62.5809 13.3167 63.7933 13.6422C64.4901 13.8293 65.61 13.9858 66.2812 13.9896C67.3076 13.9962 68.1512 15.2979 71.5942 22.1906C74.3622 27.7313 75.4637 30.4532 74.997 30.5966C74.6179 30.7133 73.5355 30.9418 72.5923 31.1043C71.1525 31.3525 70.8295 31.2074 70.5765 30.1974C70.4106 29.5354 69.9173 28.5041 69.48 27.9048C69.0427 27.3049 68.5281 26.9717 68.3367 27.1636C68.1452 27.3561 68.3731 28.4365 68.8436 29.5643C69.3136 30.6926 69.6339 31.6644 69.5551 31.7233C69.4762 31.7822 68.3704 32.0871 67.0971 32.4001C65.8243 32.7137 64.6864 32.8118 64.5689 32.6182C64.4509 32.4246 63.3783 29.9351 62.1844 27.0857C60.991 24.2362 59.1395 19.8805 58.0707 17.4057C56.8583 14.5988 56.3753 12.9087 56.7865 12.9126C57.1493 12.9158 58.3894 13.0751 59.5425 13.2659ZM21.8841 20.5415C22.7376 23.3909 23.4392 25.9999 23.4436 26.3391C23.4474 26.6783 22.3633 27.2307 21.034 27.5661C19.7052 27.902 18.4879 28.1764 18.3296 28.1764C18.1713 28.1764 17.6432 26.8021 17.1564 25.1224C16.5499 23.031 16.0946 22.2451 15.7117 22.6291C15.3288 23.013 15.8825 25.5658 17.4686 30.7275C18.7424 34.8732 19.9973 39.0212 20.2578 39.9445L20.731 41.6236L23.8363 40.119C25.5436 39.2917 27.1047 38.7158 27.3049 38.8396C27.5045 38.9634 27.9385 40.1419 28.2692 41.4578C28.5999 42.7743 29.0182 44.2369 29.1988 44.7092C29.4457 45.3543 28.5445 46.0627 25.5659 47.5668C23.3875 48.6668 20.6511 50.1709 19.4849 50.9087C18.3187 51.6466 17.3011 52.1712 17.2227 52.0747C17.145 51.9782 14.9513 44.7823 12.3486 36.0839C9.74544 27.3856 7.50231 19.8767 7.36361 19.3968C7.16834 18.7194 7.99402 18.269 11.0661 17.3757C13.2407 16.7436 15.8765 15.99 16.9236 15.7004C17.9706 15.4108 19.1662 15.2161 19.5801 15.2674C20.0321 15.3235 20.9519 17.4286 21.8841 20.5415ZM40.8746 21.5269C40.8643 21.919 41.1319 23.9128 41.4686 25.9573C41.9989 29.1793 42.2165 29.639 43.1003 29.4072C43.6611 29.26 44.1186 29.1073 44.1175 29.0669C44.1164 29.0271 43.3908 27.1538 42.5047 24.9043C41.6187 22.6547 40.8849 21.1348 40.8746 21.5269Z" fill="#4220D0"/>
<path d="M77.2402 33.7927C76.8891 34.4949 54.4192 47.6901 43.4476 54.4194C68.4629 41.6923 100.5 35.1093 100.5 34.2316C100.061 33.7927 99.759 33.641 99.1834 33.3539C92.8006 30.1693 81.5231 27.2713 75.4847 26.332C76.3624 27.2098 77.0021 29.7686 77.2401 30.7206L77.2402 30.7207C77.679 32.4761 77.679 32.915 77.2402 33.7927Z" fill="#E53C47"/>
<path d="M76.8013 34.2305C68.024 36.337 44.4716 46.3724 35.1092 50.4685C35.5481 50.9073 37.8887 55.4423 38.6201 57.4903L76.8013 34.2305Z" fill="#241380"/>
</svg>
