<svg width="99" height="73" viewBox="0 0 99 73" fill="none" xmlns="http://www.w3.org/2000/svg">
<rect x="10.7143" y="0.142883" width="30" height="72.8571" fill="#909090"/>
<rect x="40.7143" y="0.142883" width="30" height="72.8571" fill="#707070"/>
<path d="M50.8294 57.5179H48.3858V56.0779H55.0403V57.5179H52.5967V63.7143H50.8294V57.5179ZM63.1945 56.0779L59.8891 63.7143H58.1436L54.8491 56.0779H56.7581L59.0818 61.5325L61.4381 56.0779H63.1945Z" fill="#E5E5E5"/>
<path d="M50.8294 57.5179H51.6086V56.7387H50.8294V57.5179ZM48.3858 57.5179H47.6065V58.2972H48.3858V57.5179ZM48.3858 56.0779V55.2987H47.6065V56.0779H48.3858ZM55.0403 56.0779H55.8195V55.2987H55.0403V56.0779ZM55.0403 57.5179V58.2972H55.8195V57.5179H55.0403ZM52.5967 57.5179V56.7387H51.8174V57.5179H52.5967ZM52.5967 63.7143V64.4935H53.3759V63.7143H52.5967ZM50.8294 63.7143H50.0502V64.4935H50.8294V63.7143ZM50.8294 56.7387H48.3858V58.2972H50.8294V56.7387ZM49.165 57.5179V56.0779H47.6065V57.5179H49.165ZM48.3858 56.8572H55.0403V55.2987H48.3858V56.8572ZM54.2611 56.0779V57.5179H55.8195V56.0779H54.2611ZM55.0403 56.7387H52.5967V58.2972H55.0403V56.7387ZM51.8174 57.5179V63.7143H53.3759V57.5179H51.8174ZM52.5967 62.9351H50.8294V64.4935H52.5967V62.9351ZM51.6086 63.7143V57.5179H50.0502V63.7143H51.6086ZM63.1945 56.0779L63.9096 56.3875L64.3809 55.2987H63.1945V56.0779ZM59.8891 63.7143V64.4935H60.4009L60.6042 64.0238L59.8891 63.7143ZM58.1436 63.7143L57.4281 64.023L57.6311 64.4935H58.1436V63.7143ZM54.8491 56.0779V55.2987H53.6642L54.1336 56.3866L54.8491 56.0779ZM56.7581 56.0779L57.475 55.7725L57.2732 55.2987H56.7581V56.0779ZM59.0818 61.5325L58.3649 61.8379L59.0768 63.5089L59.7971 61.8415L59.0818 61.5325ZM61.4381 56.0779V55.2987H60.9259L60.7228 55.7689L61.4381 56.0779ZM62.4794 55.7684L59.174 63.4048L60.6042 64.0238L63.9096 56.3875L62.4794 55.7684ZM59.8891 62.9351H58.1436V64.4935H59.8891V62.9351ZM58.8591 63.4056L55.5645 55.7693L54.1336 56.3866L57.4281 64.023L58.8591 63.4056ZM54.8491 56.8572H56.7581V55.2987H54.8491V56.8572ZM56.0413 56.3833L58.3649 61.8379L59.7987 61.2271L57.475 55.7725L56.0413 56.3833ZM59.7971 61.8415L62.1535 56.387L60.7228 55.7689L58.3665 61.2235L59.7971 61.8415ZM61.4381 56.8572H63.1945V55.2987H61.4381V56.8572Z" fill="#E5E5E5"/>
<path d="M4.86957 20.597L15.8274 53.8762L76.2981 31.149L66.5579 13.6977L63.3111 12.4801L58.0351 12.0743L51.9475 11.6685H47.0774H42.6131L36.9313 12.0743C32.1964 12.4801 22.4832 13.2918 21.5092 13.2918C20.2916 13.2918 7.30463 16.9444 6.49294 16.9444C5.84359 16.9444 5.14013 19.3795 4.86957 20.597Z" fill="white"/>
<path fill-rule="evenodd" clip-rule="evenodd" d="M30.4604 11.1884C27.7202 11.4524 22.812 12.1513 19.5532 12.7413C16.2943 13.3313 11.5095 14.403 8.91996 15.1221C6.3299 15.8417 4.15591 16.5064 4.08834 16.5998C4.0213 16.6926 3.0737 19.1854 1.98298 22.1392L0 27.5095L3.47807 40.8101C5.39082 48.1254 7.58662 56.3913 8.35758 59.1786C9.128 61.9659 9.83138 64.3264 9.9197 64.4235C10.008 64.5212 12.1953 63.1806 14.7806 61.4447C17.3659 59.7083 21.6 57.0378 24.19 55.51C26.7806 53.9827 31.2946 51.5278 34.222 50.0544C37.1494 48.5815 39.6134 47.4516 39.6974 47.5429C39.781 47.6346 40.5785 49.3283 41.4692 51.3075L43.0882 54.9056L47.5086 52.1855C49.9401 50.6892 52.2902 49.3897 52.7307 49.2969C53.1718 49.2046 55.5677 48.1809 58.055 47.0227C60.5424 45.8646 65.4794 43.8247 69.0261 42.49C72.5728 41.1547 78.319 39.2167 81.7955 38.1823C85.2719 37.1485 90.1515 35.7988 92.6388 35.1832C95.1262 34.5681 97.5157 33.9403 97.9488 33.7882C98.4564 33.6101 97.9328 33.1508 96.4776 32.4978C95.2353 31.9403 92.0078 30.7806 89.3055 29.9207C86.6032 29.0613 82.0652 27.8327 79.2214 27.191L74.0508 26.0243L70.518 19.2078L66.9846 12.3913L61.855 11.7325C59.0335 11.3703 51.9364 10.9915 46.0837 10.8907C40.2311 10.7899 33.2005 10.9238 30.4604 11.1884ZM51.0388 12.7621L53.8651 12.7679L55.4283 16.2237C56.2875 18.1244 56.9909 19.9248 56.9909 20.2246C56.9909 20.5244 56.0518 20.7698 54.9042 20.7698C52.9904 20.7698 52.7658 20.6145 52.2024 18.9027C51.8645 17.8758 51.3894 17.0356 51.1468 17.0356C50.9042 17.0356 50.9691 17.8961 51.291 18.948C51.7879 20.5703 52.4157 21.1325 55.4256 22.6523C58.81 24.361 59.0383 24.6 60.3652 27.8082C61.1303 29.6582 61.8215 31.4986 61.9007 31.8971C61.9992 32.3906 60.6052 33.0233 57.5443 33.8747C55.0686 34.5633 52.9936 35.0776 52.9334 35.0168C52.8728 34.956 52.3333 33.6597 51.7342 32.1356L50.6451 29.3648L53.0202 29.0074C54.3258 28.8111 55.3884 28.498 55.3804 28.3107C55.3729 28.124 53.8858 27.1312 52.0763 26.1043L48.7866 24.2372L46.5046 18.3692C45.25 15.1418 44.2226 12.41 44.222 12.298C44.222 12.1865 45.1196 12.2436 46.2167 12.4255C47.3144 12.6074 49.4841 12.7589 51.0388 12.7621ZM47.1627 23.771C49.7884 29.8225 52.0029 34.9437 52.0843 35.1512C52.1657 35.3587 51.2425 35.826 50.0337 36.1893C48.8243 36.5526 47.5251 36.9687 47.1457 37.1149C46.7158 37.2802 46.2204 36.6636 45.8299 35.4766C45.4851 34.4294 45.1132 33.5727 45.0036 33.5727C44.8935 33.5727 44.1827 33.8565 43.4234 34.2033C42.2375 34.7447 42.0656 35.1208 42.2013 36.8711L42.3593 38.9083L36.2646 41.5548C32.9126 43.0106 30.1406 44.1506 30.1049 44.0882C30.0688 44.0258 28.0533 37.4227 25.6266 29.4144C23.1993 21.4057 21.3276 14.7396 21.4659 14.6009C21.6042 14.4617 22.9828 14.2926 24.529 14.2248L27.3398 14.1016L30.5093 24.504C32.2523 30.2253 33.7554 34.9858 33.8501 35.0829C33.9443 35.18 34.4785 35.0141 35.0371 34.7143C36.0342 34.1793 36.0305 33.9893 34.8387 24.6688C34.1709 19.4436 33.6144 14.6281 33.6022 13.9682C33.5814 12.8186 33.7655 12.7679 37.9847 12.7679H42.3891L47.1627 23.771ZM58.2439 13.1195C60.2029 13.4438 60.3785 13.646 62.1774 17.648C63.2128 19.952 64.3876 21.8367 64.7882 21.8367C65.2846 21.8367 64.8255 20.4598 63.3389 17.4954C61.2564 13.343 61.216 13.1691 62.4019 13.4876C63.0835 13.6705 64.179 13.8236 64.8356 13.8274C65.8396 13.8338 66.6648 15.1071 70.0327 21.8495C72.7404 27.2694 73.8178 29.9319 73.3613 30.0722C72.9904 30.1863 71.9316 30.4099 71.0091 30.5688C69.6007 30.8116 69.2847 30.6697 69.0373 29.6817C68.875 29.0341 68.3924 28.0253 67.9646 27.439C67.5368 26.8522 67.0335 26.5263 66.8462 26.7141C66.6589 26.9024 66.8819 27.9592 67.3421 29.0623C67.8018 30.1661 68.1152 31.1167 68.038 31.1743C67.9609 31.2319 66.8792 31.5301 65.6337 31.8363C64.3887 32.1431 63.2756 32.2391 63.1607 32.0497C63.0452 31.8603 61.996 29.4251 60.8281 26.6378C59.6608 23.8505 57.8497 19.5898 56.8042 17.169C55.6182 14.4233 55.1457 12.7701 55.548 12.7738C55.9029 12.777 57.1159 12.9328 58.2439 13.1195ZM21.4068 20.2363C22.2416 23.0236 22.928 25.5757 22.9323 25.9075C22.936 26.2393 21.8756 26.7797 20.5752 27.1078C19.2754 27.4364 18.0847 27.7047 17.9298 27.7047C17.775 27.7047 17.2584 26.3604 16.7822 24.7174C16.1889 22.6715 15.7436 21.9028 15.369 22.2784C14.9945 22.6539 15.5361 25.151 17.0876 30.2002C18.3337 34.2555 19.5611 38.313 19.816 39.2161L20.2789 40.8587L23.3164 39.3869C24.9865 38.5776 26.5135 38.0143 26.7093 38.1354C26.9046 38.2565 27.3292 39.4093 27.6527 40.6965C27.9762 41.9842 28.3853 43.415 28.562 43.877C28.8035 44.508 27.9219 45.201 25.0083 46.6723C22.8775 47.7482 20.2007 49.2195 19.0599 49.9413C17.9192 50.663 16.9237 51.1762 16.8471 51.0818C16.771 50.9874 14.6252 43.9484 12.0793 35.4398C9.53289 26.9312 7.33868 19.586 7.20301 19.1166C7.012 18.454 7.81966 18.0134 10.8247 17.1396C12.9519 16.5213 15.5303 15.7841 16.5545 15.5008C17.5787 15.2176 18.7481 15.0271 19.153 15.0773C19.5952 15.1322 20.4949 17.1914 21.4068 20.2363ZM39.9831 21.2003C39.973 21.5838 40.2348 23.5341 40.5641 25.5341C41.0829 28.6857 41.2957 29.1354 42.1603 28.9087C42.7089 28.7647 43.1563 28.6153 43.1553 28.5758C43.1542 28.5369 42.4444 26.7045 41.5777 24.504C40.711 22.3035 39.9932 20.8167 39.9831 21.2003Z" fill="#4F4F4F"/>
</svg>
