<svg width="139" height="93" viewBox="0 0 139 93" fill="none" xmlns="http://www.w3.org/2000/svg">
<path fill-rule="evenodd" clip-rule="evenodd" d="M109.671 19.6426C110.353 25.5081 110.626 29.873 108.58 36.1477C108.17 37.3754 109.807 36.4206 109.398 37.9211C108.852 40.3764 106.261 44.1958 103.805 44.8778C100.668 45.6962 99.986 42.8317 98.0763 43.6501C94.9389 45.0142 89.8919 44.1957 86.891 41.0583C83.0716 42.6952 76.3877 41.604 73.2503 39.4215C71.477 40.5128 68.0669 41.4676 64.5203 41.4676C62.2014 41.4676 60.0189 41.1947 58.7912 39.6943C55.6539 41.3312 49.652 42.4224 45.6962 40.922C43.6501 42.286 41.8768 43.7865 38.8759 44.1958C34.7837 44.605 34.238 42.5588 33.2832 43.2408C31.2371 44.8777 28.2361 45.4233 25.3716 41.8767C24.4168 40.6491 23.1891 37.7846 23.1891 36.8298C23.0527 35.8749 23.8711 36.4205 24.0075 35.7384C24.1439 34.7836 23.7347 33.8289 23.3255 32.4648C22.5071 29.0547 21.825 22.78 23.4619 18.8242H23.5983C24.0076 22.78 26.7357 25.7809 27.9633 29.191H28.0997C27.8269 24.826 26.3265 20.1881 26.4629 15.2775C26.5993 6.41104 27.8269 4.36501 28.6454 0H28.7818C30.1458 10.7761 37.1026 18.6877 44.8777 23.8711H45.0142C45.6962 20.7338 47.6059 18.1421 48.9699 15.414C51.2889 17.1873 54.017 18.415 58.1092 24.2804C61.2465 23.7348 63.7018 16.9145 65.6115 14.732C65.6115 14.8684 65.748 14.8683 65.748 15.0047C68.0669 17.8693 70.113 21.9615 74.478 24.4168C75.16 23.5984 75.842 22.7799 76.5241 21.9614C78.9794 19.9153 81.5711 17.7329 84.0264 15.6868C85.3905 17.3236 86.7546 21.4159 87.9822 24.2804C96.4394 18.9606 101.759 11.7309 104.624 0.954779C106.67 4.91057 107.216 16.2324 105.988 21.825C105.579 24.4168 105.169 27.0084 104.76 29.6002C104.76 29.6002 104.76 29.6003 104.76 29.7367C104.76 29.8731 104.76 29.873 104.76 30.0094C104.76 29.873 104.76 29.7366 104.76 29.6002C106.67 27.1448 108.443 21.6887 109.671 19.6426ZM43.9229 61.1102V81.5712C43.9229 88.5279 40.1035 92.6201 33.4196 92.6201C28.9182 92.6201 26.1901 90.8468 24.5532 87.3002L24.144 86.3454C24.0075 86.209 23.5983 85.9362 23.5983 85.7998L24.0075 85.6634V85.3905L23.8711 81.1619L23.5983 70.6587V69.5673L24.2804 68.3397L23.8711 59.7461L24.6896 55.6539L24.2804 55.5174C24.9624 54.1533 25.7808 52.9257 27.0085 52.1072C27.8269 51.4252 28.509 52.653 29.6002 52.3801C30.8279 51.9709 32.3284 50.1977 33.6924 50.1977C40.1035 50.0613 43.9229 54.0171 43.9229 61.1102ZM35.7385 69.1581L35.4657 59.4732C35.4657 58.5184 34.5109 56.6087 33.4196 56.6087C32.3284 56.6087 31.7827 58.6548 31.7827 59.6096L31.2371 65.7479C31.2371 65.7479 32.0555 74.3416 31.5099 77.479L31.6463 82.9352C31.6463 83.8901 32.3284 86.2089 33.4196 86.2089C34.5109 86.2089 35.1929 82.1167 35.1929 82.1167L35.4657 80.0706V75.842L36.0113 75.5693L35.6021 71.3407V71.2042L35.7385 69.1581ZM136.679 92.2108L136.816 91.3924L133.133 90.8467L132.724 91.3924L131.905 91.5288H131.223L129.313 90.7104L128.495 83.89L123.584 84.5721L123.175 84.1628C123.039 84.1628 123.039 84.2993 122.902 84.2993L122.766 87.1638L122.084 89.619L121.675 91.938H113.763L115.536 80.7526L116.218 78.9794L116.628 75.2963V69.2946L118.128 67.2485L117.855 65.3388L118.264 63.7018L118.947 59.8825L119.219 50.8797L121.675 50.1977H125.63L128.086 51.1525C128.086 51.1525 128.904 50.8796 129.313 51.1525C129.723 51.4253 130.677 50.1977 130.677 50.1977H131.36L133.133 61.7922V64.6567L133.542 67.2485L133.406 69.2946L134.36 70.6587L134.633 73.2503L135.452 78.161L135.861 78.4338L138.043 92.0744L136.679 92.2108ZM128.086 75.4329L126.585 65.2024L125.767 66.1572L125.085 65.8844L125.358 66.7028L124.13 76.2513L128.086 75.4329ZM106.67 83.3444L106.943 75.2963L107.625 50.6068H104.897L103.26 51.5617L100.941 51.4252L99.7132 50.6068L99.1676 51.0161L99.0311 69.9766L99.4404 70.795L98.3491 72.0227V92.3472H101.486V91.8017L102.851 91.5288L103.669 90.9831L105.033 92.4837H108.034L109.671 91.8017L111.171 92.4837V84.5721H107.352L106.67 83.3444ZM90.9832 83.6173L91.1196 75.2963L91.938 70.2494L91.256 68.8853L91.6652 65.7479L91.8016 50.8797L89.0735 50.6068L87.3002 51.4252L84.0264 50.6068L83.4808 51.0161L83.3444 69.9766L82.7988 72.0227V92.3472H83.7536L84.4356 91.5288L85.7997 92.3472L87.573 92.4837L89.3463 92.3472H92.3472L95.4846 92.4837V89.7556L94.6661 87.8459L95.4846 86.4818V84.7084H91.6652L90.9832 83.6173ZM67.7941 90.7104L67.2484 92.2108H59.7461L59.4732 91.3924C59.064 90.1647 58.7912 89.3462 58.7912 86.2089V80.0706C58.7912 76.7968 57.8364 76.1149 55.7903 76.1149H54.699L53.8806 91.5288L46.3782 92.0744V83.208L46.9238 81.7076L46.3782 80.2071V79.1158L46.651 77.7517V76.524L46.3782 75.4329L46.5146 74.4779L46.3782 73.5232L46.2418 61.6557C46.1054 61.6557 46.9238 59.7461 46.9238 59.8825C46.9238 59.8825 46.7874 58.3819 46.9238 56.1994C46.9238 56.1994 46.651 52.1073 46.7875 51.0161C46.7875 50.4705 50.8797 50.4704 50.8797 50.4704L52.3801 51.2888L56.8815 50.3341C63.7019 50.3341 67.112 53.7442 67.112 60.5645V63.7018C67.112 67.3848 66.0208 69.9766 64.1111 71.6134C65.2023 72.4319 66.0208 73.6595 66.5664 75.16L66.8392 76.1149C67.112 77.2062 67.2484 78.5701 67.2484 80.0706V86.2089C67.2484 88.1186 67.3848 89.3463 67.7941 90.7104ZM58.9276 61.3829C58.9276 58.6548 57.9728 58.3821 56.8815 58.3821H54.9718V67.5212L56.3359 68.3397C57.9728 68.3397 58.9276 67.7941 58.9276 65.3388V61.3829ZM70.113 61.5193L70.6586 62.8834L70.5222 70.6587L70.6586 73.9323L70.3858 74.7509L70.113 75.5693V86.4818L70.3858 86.7545L70.2494 92.2108L73.2503 92.0744H79.525V84.5721L79.2522 84.1628L78.9794 83.0716L79.1158 81.8439L79.2522 79.3885L79.1158 77.7517L79.2522 77.0697L79.3886 76.797V61.6557H78.9794L79.3886 60.5645V50.6068L70.3858 50.7432L70.113 61.5193ZM20.461 86.6182L20.8702 85.6634L20.7338 84.1628L20.5974 81.9803C20.5974 81.9803 20.5974 81.7076 20.5974 81.5712V73.5232V73.3868C20.3246 72.5684 19.2333 70.2494 19.2333 70.2494H13.6407L10.9125 70.113L10.6397 77.0697H14.4591V78.4338C14.7319 79.525 13.7771 83.3444 13.5042 84.0264C13.3678 84.1628 13.3678 84.1628 13.095 84.1628C12.9586 84.1628 12.9586 84.1628 12.8222 84.1628L12.413 84.0264L12.0038 84.2993C11.731 84.5721 11.1853 84.7084 10.6397 84.7084C10.0941 84.7084 8.3208 83.89 8.59362 81.9803V75.5693L8.4572 75.16L8.32079 71.7498V71.6134C8.32079 71.477 8.32079 71.3407 8.32079 71.3407C8.45719 71.2043 8.4572 71.2042 8.4572 71.0678L8.59362 70.795V60.5645C8.59362 59.3369 8.86642 58.5184 9.41204 58.1092L9.82127 57.8364H10.2305C10.3669 57.8364 10.6397 57.8364 10.7761 57.8364C10.9125 57.8364 11.1853 57.8364 11.3217 57.8364H11.5946H11.731C12.0038 57.9728 12.8222 58.2456 12.8222 60.1553V65.4751L15.8231 65.8844L16.778 65.3388L17.7329 65.8844L20.461 65.3388L20.7338 60.7009C20.7338 55.2447 18.8241 52.7893 16.6416 51.4252L13.095 50.0611C12.2766 49.9247 11.4581 49.7884 10.5033 49.7884C7.77517 49.7884 5.45626 50.4704 3.68297 51.8345L2.31891 54.2899L1.90968 55.1083L1.77329 55.9267L0.272809 58.9276C0.136402 59.6096 0.136394 60.1553 0.136394 60.8373L0 63.1563C0 63.5655 0.409224 75.842 0.409224 75.842L0.136394 78.7065L0 81.4346C0 83.2079 0.40922 83.89 0.682033 84.8448C0.954846 85.9361 1.22765 87.0274 2.59172 87.9822L3.81939 90.574L4.77423 90.3011V91.3924V91.256C6.2747 92.0745 8.04798 92.3472 10.0941 92.3472C12.5494 92.3472 13.5042 89.8919 15.1411 88.8006L16.9144 91.3924L18.9605 92.6201L21.4158 91.938L21.0066 89.0735L20.461 86.6182Z" fill="black"/>
</svg>
