<svg width="92" height="61" viewBox="0 0 92 61" fill="none" xmlns="http://www.w3.org/2000/svg">
<path fill-rule="evenodd" clip-rule="evenodd" d="M72.5439 13.0417C72.9906 16.8934 73.1693 19.7598 71.8292 23.8803C71.5612 24.6864 72.6332 24.0594 72.3652 25.0448C72.0079 26.6571 70.3104 29.1652 68.7023 29.6131C66.6474 30.1505 66.2007 28.2694 64.95 28.8069C62.8952 29.7026 59.5896 29.1652 57.6241 27.1049C55.1225 28.1798 50.7449 27.4633 48.69 26.0301C47.5286 26.7467 45.2951 27.3737 42.9723 27.3737C41.4535 27.3737 40.024 27.1945 39.22 26.2092C37.1651 27.2841 33.2342 28.0007 30.6433 27.0154C29.3032 27.9111 28.1418 28.8965 26.1763 29.1652C23.4961 29.4339 23.1387 28.0902 22.5133 28.5381C21.1732 29.613 19.2077 29.9713 17.3316 27.6424C16.7062 26.8362 15.9021 24.9552 15.9021 24.3281C15.8128 23.7011 16.3488 24.0594 16.4382 23.6115C16.5275 22.9845 16.2595 22.3575 15.9915 21.4618C15.4554 19.2224 15.0087 15.1019 16.0808 12.5043H16.1702C16.4382 15.1019 18.225 17.0726 19.029 19.312H19.1184C18.9397 16.4456 17.957 13.3999 18.0463 10.1752C18.1356 4.35286 18.9397 3.00928 19.4757 0.142883H19.5651C20.4585 7.21931 25.0148 12.4147 30.1072 15.8185H30.1966C30.6433 13.7583 31.8941 12.0564 32.7875 10.2649C34.3062 11.4294 36.093 12.2355 38.7733 16.0873C40.8281 15.729 42.4362 11.2502 43.687 9.81703C43.687 9.9066 43.7763 9.90656 43.7763 9.99613C45.2951 11.8772 46.6352 14.5645 49.4941 16.1768C49.9408 15.6394 50.3875 15.1019 50.8342 14.5644C52.4423 13.2208 54.1398 11.7876 55.7479 10.444C56.6413 11.5189 57.5347 14.2062 58.3388 16.0873C63.8779 12.5939 67.3622 7.84629 69.2383 0.769864C70.5784 3.36754 70.9358 10.8023 70.1317 14.4749C69.8637 16.1768 69.5957 17.8787 69.3277 19.5806C69.3277 19.5806 69.3277 19.5807 69.3277 19.6703C69.3277 19.7598 69.3277 19.7598 69.3277 19.8494C69.3277 19.7598 69.3277 19.6702 69.3277 19.5806C70.5784 17.9683 71.7399 14.3853 72.5439 13.0417ZM29.4819 40.2725V53.7088C29.4819 58.2771 26.9803 60.9643 22.6027 60.9643C19.6544 60.9643 17.8676 59.7998 16.7955 57.4709L16.5275 56.8439C16.4382 56.7543 16.1702 56.5751 16.1702 56.4856L16.4382 56.396V56.2168L16.3488 53.44L16.1702 46.5428V45.8261L16.6169 45.0199L16.3488 39.3768L16.8849 36.6895L16.6169 36.5999C17.0636 35.7041 17.5996 34.8979 18.4037 34.3605C18.9397 33.9126 19.3864 34.7188 20.1011 34.5397C20.9052 34.271 21.8879 33.1065 22.7813 33.1065C26.9803 33.0169 29.4819 35.6146 29.4819 40.2725ZM24.1214 45.5574L23.9428 39.1976C23.9428 38.5705 23.3174 37.3165 22.6027 37.3165C21.8879 37.3165 21.5306 38.6601 21.5306 39.2871L21.1732 43.318C21.1732 43.318 21.7093 48.9613 21.3519 51.0215L21.4412 54.6045C21.4412 55.2315 21.8879 56.7542 22.6027 56.7542C23.3174 56.7542 23.7641 54.067 23.7641 54.067L23.9428 52.7234V49.9466L24.3001 49.7674L24.0321 46.9906V46.901L24.1214 45.5574ZM90.2333 60.6956L90.3226 60.1581L87.9104 59.7998L87.6424 60.1581L87.1064 60.2477H86.6597L85.4089 59.7103L84.8729 55.2315L81.6566 55.6794L81.3886 55.4106C81.2993 55.4106 81.2993 55.5003 81.2099 55.5003L81.1206 57.3813L80.6739 58.9936L80.4059 60.5164H75.2241L76.3855 53.1712L76.8322 52.0068L77.1003 49.5882V45.647L78.083 44.3034L77.9043 43.0493L78.1724 41.9744L78.6191 39.4663L78.7977 33.5544L80.4059 33.1065H82.9967L84.6049 33.7335C84.6049 33.7335 85.1409 33.5544 85.4089 33.7335C85.6769 33.9127 86.3023 33.1065 86.3023 33.1065H86.749L87.9104 40.7204V42.6014L88.1785 44.3034L88.0891 45.647L88.7145 46.5428L88.8932 48.2446L89.4292 51.4694L89.6973 51.6485L91.1267 60.606L90.2333 60.6956ZM84.6049 49.6779L83.6221 42.9598L83.0861 43.5868L82.6394 43.4076L82.8181 43.9451L82.014 50.2153L84.6049 49.6779ZM70.5784 54.8732L70.7571 49.5882L71.2038 33.3752H69.417L68.3449 34.0023L66.8261 33.9126L66.0221 33.3752L65.6647 33.644L65.5754 46.0949L65.8434 46.6323L65.1287 47.4385V60.7851H67.1835V60.4269L68.0769 60.2477L68.6129 59.8894L69.5063 60.8748H71.4718L72.5439 60.4269L73.5266 60.8748V55.6794H71.0251L70.5784 54.8732ZM60.3043 55.0524L60.3936 49.5882L60.9297 46.274L60.483 45.3783L60.751 43.318L60.8403 33.5544L59.0535 33.3752L57.8921 33.9126L55.7479 33.3752L55.3906 33.644L55.3012 46.0949L54.9439 47.4385V60.7851H55.5692L56.0159 60.2477L56.9093 60.7851L58.0708 60.8748L59.2322 60.7851H61.1977L63.2525 60.8748V59.0833L62.7165 57.8292L63.2525 56.9334V55.7689H60.751L60.3043 55.0524ZM45.1164 59.7103L44.7591 60.6956H39.8454L39.6667 60.1581C39.3986 59.3519 39.22 58.8145 39.22 56.7542V52.7234C39.22 50.5736 38.5946 50.1258 37.2545 50.1258H36.5397L36.0037 60.2477L31.09 60.606V54.7836L31.4474 53.7983L31.09 52.813V52.0964L31.2687 51.2006V50.3944L31.09 49.6779L31.1793 49.0508L31.09 48.4238L31.0006 40.6307C30.9113 40.6307 31.4474 39.3768 31.4474 39.4663C31.4474 39.4663 31.358 38.4809 31.4474 37.0477C31.4474 37.0477 31.2687 34.3605 31.358 33.644C31.358 33.2856 34.0382 33.2856 34.0382 33.2856L35.021 33.8231L37.9692 33.1961C42.4362 33.1961 44.6697 35.4355 44.6697 39.9142V41.9744C44.6697 44.3929 43.955 46.0949 42.7042 47.1698C43.419 47.7072 43.955 48.5134 44.3124 49.4987L44.491 50.1258C44.6697 50.8424 44.7591 51.738 44.7591 52.7234V56.7542C44.7591 58.0083 44.8484 58.8145 45.1164 59.7103ZM39.3093 40.4516C39.3093 38.6601 38.6839 38.481 37.9692 38.481H36.7184V44.4825L37.6118 45.0199C38.6839 45.0199 39.3093 44.6617 39.3093 43.0493V40.4516ZM46.6352 40.5412L46.9926 41.4369L46.9032 46.5428L46.9926 48.6925L46.8139 49.23L46.6352 49.7674V56.9334L46.8139 57.1126L46.7246 60.6956L48.69 60.606H52.7997V55.6794L52.621 55.4106L52.4423 54.6941L52.5317 53.8879L52.621 52.2755L52.5317 51.2006L52.621 50.7528L52.7104 50.5736V40.6307H52.4423L52.7104 39.9142V33.3752L46.8139 33.4647L46.6352 40.5412ZM14.1153 57.023L14.3834 56.396L14.294 55.4106L14.2047 53.9774C14.2047 53.9774 14.2047 53.7983 14.2047 53.7088V48.4238V48.3343C14.026 47.7968 13.3113 46.274 13.3113 46.274H9.64831L7.86151 46.1844L7.68283 50.7528H10.1843V51.6485C10.363 52.3651 9.73765 54.8732 9.55897 55.3211C9.46963 55.4106 9.46962 55.4106 9.29094 55.4106C9.2016 55.4106 9.20161 55.4106 9.11227 55.4106L8.84424 55.3211L8.57623 55.5003C8.39755 55.6794 8.04019 55.7689 7.68283 55.7689C7.32547 55.7689 6.16404 55.2315 6.34272 53.9774V49.7674L6.25338 49.4987L6.16403 47.2593V47.1698C6.16403 47.0802 6.16403 46.9906 6.16403 46.9906C6.25337 46.9011 6.25338 46.901 6.25338 46.8114L6.34272 46.6323V39.9142C6.34272 39.108 6.5214 38.5705 6.87876 38.3018L7.14678 38.1227H7.4148C7.50415 38.1227 7.68282 38.1227 7.77216 38.1227C7.8615 38.1227 8.04019 38.1227 8.12953 38.1227H8.30821H8.39754C8.57622 38.2123 9.11227 38.3914 9.11227 39.6454V43.1389L11.0778 43.4076L11.7031 43.0493L12.3285 43.4076L14.1153 43.0493L14.294 40.0038C14.294 36.4208 13.0432 34.8084 11.6138 33.9126L9.29094 33.0169C8.7549 32.9273 8.21886 32.8378 7.59348 32.8378C5.80668 32.8378 4.28789 33.2856 3.12647 34.1814L2.23306 35.7938L1.96504 36.3312L1.87571 36.8686L0.892957 38.8392C0.803617 39.2871 0.803611 39.6454 0.803611 40.0933L0.714279 41.6161C0.714279 41.8849 0.982303 49.9466 0.982303 49.9466L0.803611 51.8276L0.714279 53.6191C0.714279 54.7836 0.9823 55.2315 1.16098 55.8585C1.33966 56.5751 1.51834 57.2917 2.41174 57.9188L3.21581 59.6207L3.84119 59.4415V60.1581V60.0686C4.82394 60.606 5.98535 60.7851 7.32546 60.7851C8.93359 60.7851 9.55896 59.1728 10.631 58.4562L11.7925 60.1581L13.1326 60.9643L14.7407 60.5164L14.4727 58.6354L14.1153 57.023Z" fill="#4F4F4F"/>
</svg>
