<svg width="81" height="46" viewBox="0 0 81 46" fill="none" xmlns="http://www.w3.org/2000/svg">
<path fill-rule="evenodd" clip-rule="evenodd" d="M0 6.31354C0 12.2412 0.00904829 12.6174 0.151018 12.5628C0.234126 12.5308 2.72791 11.1148 5.69284 9.41592C8.65777 7.71715 11.0508 6.29822 11.0106 6.26281C10.9705 6.22731 8.50149 4.80512 5.5239 3.1022C2.54632 1.39938 0.0853939 0.00616647 0.0550848 0.00616647C0.0247756 0.00616647 0 2.84447 0 6.31354ZM69.3156 6.31046C69.3156 11.3234 69.3382 12.6119 69.4254 12.5772C69.4859 12.5533 71.927 11.1587 74.8503 9.47829C77.7736 7.79783 80.1982 6.39097 80.2383 6.35204C80.2785 6.3131 77.9262 4.91504 75.0111 3.24534C72.0961 1.57563 69.622 0.162337 69.5133 0.104731L69.3156 0V6.31046ZM0 23.4803C0 29.3735 0.00992693 29.7934 0.148382 29.7401C0.229997 29.7086 2.69101 28.3106 5.6172 26.6333C8.54348 24.956 10.9687 23.5569 11.0068 23.5243C11.0449 23.4916 8.65312 22.0735 5.6917 20.3729C2.73037 18.6721 0.238256 17.2544 0.153742 17.2221C0.00817029 17.1667 0 17.5007 0 23.4803ZM69.3156 23.4803C69.3156 26.9442 69.3313 29.7783 69.3503 29.7783C69.3694 29.7783 71.8215 28.3811 74.7995 26.6734C77.7776 24.9656 80.2152 23.5288 80.2164 23.4803C80.2178 23.4319 77.7807 21.9951 74.8008 20.2873C71.8209 18.5797 69.3677 17.1824 69.3492 17.1824C69.3307 17.1824 69.3156 20.0165 69.3156 23.4803ZM17.7462 19.3477C17.7462 19.3758 19.1736 21.8556 20.9183 24.8582C22.6629 27.8607 24.1022 30.3051 24.1167 30.2901C24.1312 30.2751 25.5146 27.9043 27.1908 25.0218C28.8669 22.1393 30.2948 19.6718 30.3638 19.5386L30.4893 19.2964H24.1178C20.6134 19.2964 17.7462 19.3195 17.7462 19.3477ZM49.2852 19.3392C49.2852 19.3627 50.7136 21.8414 52.4595 24.8474C54.2054 27.8534 55.6495 30.2972 55.6686 30.2781C55.6877 30.2589 57.1255 27.7964 58.8636 24.806C60.6017 21.8155 62.0239 19.3524 62.0239 19.3326C62.0239 19.3127 59.1577 19.2964 55.6546 19.2964C52.1514 19.2964 49.2852 19.3157 49.2852 19.3392ZM28.837 25.4339L25.6733 30.8793L28.8762 30.9024C30.6378 30.9152 33.4996 30.9152 35.2356 30.9024L38.3921 30.8793L35.2743 25.5119C33.5596 22.5599 32.1215 20.1094 32.0786 20.0664C32.0333 20.021 30.6769 22.267 28.837 25.4339ZM44.5159 25.4328C42.7867 28.4166 41.3869 30.873 41.4051 30.8913C41.4233 30.9096 44.2818 30.9144 47.7573 30.902L54.0764 30.8793L50.9168 25.4402C49.1792 22.4487 47.7355 20.0026 47.7087 20.0043C47.6819 20.0061 46.2452 22.4489 44.5159 25.4328ZM6.17181 28.1754C3.1641 29.9048 0.703611 31.3396 0.704051 31.3638C0.704578 31.388 3.17534 32.8221 6.19465 34.5507L11.6844 37.6934V31.3576C11.6844 27.8729 11.6745 25.0239 11.6624 25.0265C11.6504 25.0289 9.17953 26.446 6.17181 28.1754ZM75.3922 28.1947C70.1119 31.2375 69.9235 31.3549 70.121 31.4806C70.2338 31.5522 72.6386 32.937 75.4653 34.5578C78.2919 36.1785 80.6937 37.5513 80.8023 37.6083L81 37.712V31.3669C81 27.8771 80.9703 25.0257 80.9341 25.0304C80.8979 25.0352 78.404 26.4591 75.3922 28.1947ZM25.643 32.7511C25.6893 32.8358 27.1071 35.2776 28.7936 38.1771C30.4802 41.0766 31.8964 43.4507 31.9409 43.4528C31.9853 43.4549 33.4352 41.0276 35.1627 38.0588C36.8902 35.09 38.3037 32.6466 38.3037 32.629C38.3037 32.6114 35.4361 32.597 31.9313 32.597C25.8889 32.597 25.5632 32.605 25.643 32.7511ZM41.481 32.6794C41.4971 32.7248 42.9137 35.1815 44.6291 38.1387C46.3444 41.0958 47.7717 43.5163 47.8009 43.5173C47.8301 43.5184 49.0333 41.4879 50.4749 39.005C51.9163 36.5222 53.344 34.0647 53.6474 33.5439L54.1991 32.597H47.8254C43.9025 32.597 41.463 32.6287 41.481 32.6794ZM0 39.2378C0 42.7069 0.0247756 45.5452 0.0550848 45.5452C0.0853939 45.5452 2.54632 44.152 5.5239 42.4492C8.50149 40.7463 10.9705 39.3241 11.0106 39.2886C11.0508 39.2532 8.65777 37.8342 5.69284 36.1354C2.72791 34.4366 0.234126 33.0206 0.151018 32.9886C0.00904829 32.934 0 33.3102 0 39.2378ZM69.3156 39.2409V45.5514L69.5133 45.4466C69.622 45.389 72.0961 43.9757 75.0111 42.306C77.9262 40.6363 80.2785 39.2383 80.2383 39.1993C80.1982 39.1604 77.7736 37.7535 74.8503 36.0731C71.927 34.3926 69.4859 32.9981 69.4254 32.9741C69.3382 32.9394 69.3156 34.228 69.3156 39.2409ZM36.8541 38.3832C35.2113 41.2194 33.7759 43.6939 33.6645 43.8819L33.4619 44.224H39.8455C45.588 44.224 46.2239 44.2102 46.1767 44.0868C46.1479 44.0113 44.761 41.6026 43.095 38.734C41.4289 35.8654 40.0151 33.4526 39.9534 33.3724C39.8563 33.2461 39.4375 33.9231 36.8541 38.3832Z" fill="#4F4F4F"/>
</svg>
