<svg width="114" height="64" viewBox="0 0 114 64" fill="none" xmlns="http://www.w3.org/2000/svg">
<path fill-rule="evenodd" clip-rule="evenodd" d="M0 8.87057C0 17.199 0.0127346 17.7275 0.212544 17.6508C0.329511 17.6059 3.83928 15.6164 8.01215 13.2294C12.185 10.8427 15.553 8.84904 15.4965 8.79929C15.44 8.74942 11.9651 6.75122 7.77438 4.35862C3.58371 1.96614 0.120184 0.00866394 0.0775267 0.00866394C0.0348694 0.00866394 0 3.9965 0 8.87057ZM97.5553 8.86624C97.5553 15.9094 97.5871 17.7199 97.7099 17.6711C97.7949 17.6374 101.231 15.6781 105.345 13.3171C109.459 10.956 112.872 8.97936 112.928 8.92466C112.985 8.86996 109.674 6.90567 105.571 4.55972C101.469 2.21378 97.9865 0.228085 97.8335 0.147147L97.5553 0V8.86624ZM0 32.9901C0 41.2699 0.0139712 41.8599 0.208835 41.785C0.3237 41.7408 3.78735 39.7766 7.90569 37.42C12.0242 35.0634 15.4375 33.0976 15.491 33.0518C15.5447 33.0059 12.1785 31.0134 8.01054 28.624C3.84274 26.2345 0.335323 24.2425 0.216377 24.1972C0.0114989 24.1194 0 24.5887 0 32.9901ZM97.5553 32.9901C97.5553 37.8568 97.5773 41.8387 97.6042 41.8387C97.631 41.8387 101.082 39.8757 105.273 37.4763C109.465 35.0769 112.895 33.0581 112.897 32.9901C112.899 32.922 109.469 30.9033 105.275 28.5038C101.081 26.1046 97.6286 24.1414 97.6025 24.1414C97.5766 24.1414 97.5553 28.1233 97.5553 32.9901ZM24.9761 27.1836C24.9761 27.2232 26.9851 30.7072 29.4406 34.9259C31.8959 39.1445 33.9217 42.5789 33.9421 42.5578C33.9625 42.5367 35.9094 39.2058 38.2685 35.1558C40.6275 31.1059 42.6371 27.639 42.7343 27.4519L42.9109 27.1116H33.9436C29.0115 27.1116 24.9761 27.144 24.9761 27.1836ZM69.3644 27.1717C69.3644 27.2048 71.3748 30.6873 73.8319 34.9108C76.2891 39.1343 78.3215 42.5678 78.3484 42.5409C78.3752 42.514 80.3988 39.0542 82.8451 34.8526C85.2913 30.6509 87.2928 27.1903 87.2928 27.1624C87.2928 27.1345 83.2589 27.1116 78.3286 27.1116C73.3983 27.1116 69.3644 27.1387 69.3644 27.1717ZM40.5854 35.7348L36.1328 43.3857L40.6406 43.4181C43.1198 43.4361 47.1475 43.4361 49.5909 43.4181L54.0333 43.3857L49.6453 35.8444C47.232 31.6968 45.2081 28.2539 45.1477 28.1935C45.0839 28.1296 43.1748 31.2853 40.5854 35.7348ZM62.652 35.7333C60.2183 39.9256 58.2482 43.3768 58.2738 43.4025C58.2995 43.4281 62.3225 43.435 67.214 43.4175L76.1075 43.3857L71.6608 35.7437C69.2152 31.5406 67.1833 28.1037 67.1456 28.1062C67.1079 28.1087 65.0858 31.5409 62.652 35.7333ZM8.68626 39.5867C4.45317 42.0164 0.990268 44.0323 0.990886 44.0664C0.991628 44.1004 4.469 46.1153 8.7184 48.5439L16.4447 52.9595V44.0577C16.4447 39.1616 16.4307 35.1588 16.4138 35.1624C16.3968 35.1658 12.9193 37.1569 8.68626 39.5867ZM106.108 39.6137C98.676 43.8889 98.4108 44.0539 98.6889 44.2305C98.8475 44.3311 102.232 46.2767 106.21 48.5539C110.189 50.8311 113.569 52.7598 113.722 52.8399L114 52.9856V44.0707C114 39.1675 113.958 35.1613 113.907 35.1679C113.856 35.1746 110.346 37.1752 106.108 39.6137ZM36.0902 46.0155C36.1553 46.1346 38.1507 49.5653 40.5243 53.6391C42.898 57.713 44.8913 61.0485 44.9538 61.0515C45.0164 61.0544 47.0569 57.6441 49.4882 53.4729C51.9196 49.3017 53.9089 45.8688 53.9089 45.844C53.9089 45.8193 49.873 45.799 44.9404 45.799C36.4362 45.799 35.9779 45.8102 36.0902 46.0155ZM58.3807 45.9148C58.4034 45.9785 60.3971 49.4303 62.8113 53.5852C65.2254 57.74 67.2343 61.1407 67.2753 61.1422C67.3164 61.1437 69.0098 58.2908 71.0387 54.8023C73.0675 51.314 75.0768 47.8611 75.5037 47.1294L76.2802 45.799H67.3098C61.7887 45.799 58.3554 45.8435 58.3807 45.9148ZM0 55.1294C0 60.0035 0.0348694 63.9913 0.0775267 63.9913C0.120184 63.9913 3.58371 62.0339 7.77438 59.6414C11.9651 57.2488 15.44 55.2506 15.4965 55.2007C15.553 55.151 12.185 53.1573 8.01215 50.7706C3.83928 48.3836 0.329511 46.3941 0.212544 46.3492C0.0127346 46.2725 0 46.801 0 55.1294ZM97.5553 55.1338V64L97.8335 63.8528C97.9865 63.7719 101.469 61.7862 105.571 59.4403C109.674 57.0943 112.985 55.13 112.928 55.0753C112.872 55.0206 109.459 53.044 105.345 50.6829C101.231 48.3219 97.7949 46.3626 97.7099 46.3289C97.5871 46.2801 97.5553 48.0906 97.5553 55.1338ZM51.8688 53.9286C49.5566 57.9136 47.5365 61.3902 47.3796 61.6544L47.0945 62.135H56.0788C64.1609 62.135 65.0559 62.1157 64.9894 61.9423C64.9488 61.8362 62.997 58.4519 60.6522 54.4215C58.3073 50.3911 56.3176 47.0011 56.2307 46.8884C56.0941 46.7111 55.5046 47.6623 51.8688 53.9286Z" fill="#E60040"/>
</svg>
