<svg width="222" height="67" viewBox="0 0 222 67" fill="none" xmlns="http://www.w3.org/2000/svg">
<path d="M221.236 0H0V67H221.236V0Z" fill="#FFC629"/>
<path d="M47.032 20.6445L40.7496 46.1833H45.8433L46.8622 41.2963H51.9559L52.9746 46.1833H58.238L52.2954 20.6445H47.032ZM47.7112 37.9857L49.7486 27.8963L51.786 37.9857H47.7112Z" fill="#111820"/>
<path d="M74.0284 34.2052C73.519 33.5746 72.67 32.9441 71.6513 32.3135L66.8971 29.0028C66.3877 28.6875 66.0482 28.2147 65.7087 27.7417C65.5389 27.2688 65.369 26.7959 65.369 26.0076C65.369 25.3771 65.5388 24.7465 66.0482 24.4312C66.5575 24.1159 67.0669 23.8006 67.7461 23.8006C69.6137 23.8006 70.1232 25.2193 70.1232 28.2146V28.53H75.0471V27.7417C75.0471 26.0076 74.7075 24.5887 74.1981 23.4851C73.6888 22.3816 72.8398 21.4358 71.6513 20.8052C70.6326 20.1746 69.2742 19.8594 67.7461 19.8594C65.5388 19.8594 63.8409 20.4899 62.4826 21.5935C61.1243 22.8546 60.4452 24.4311 60.4452 26.4805C60.4452 29.3181 61.6337 31.5253 64.1805 33.1018L68.2555 35.9393C69.1045 36.5699 69.7836 37.2004 70.1232 37.6734C70.4627 38.304 70.6326 38.9346 70.6326 39.7229C70.6326 40.5111 70.4628 41.1418 69.9534 41.7724C69.444 42.2453 68.7648 42.5606 67.9158 42.5606C65.7085 42.5606 65.0295 40.9841 65.0295 37.9888V37.0429H60.1055V37.9888C60.1055 39.7229 60.4451 41.2994 60.9545 42.5606C61.4638 43.8218 62.4826 44.7675 63.5013 45.5557C64.6898 46.1863 66.0482 46.5018 67.7461 46.5018C69.2742 46.5018 70.6325 46.1865 71.821 45.7135C73.0096 45.0829 73.8585 44.2947 74.3679 43.3488C74.8773 42.2453 75.2168 40.9841 75.2168 39.4076C75.2168 38.1465 75.047 37.0429 74.7074 36.2547C74.3678 35.4665 74.7076 34.8358 74.0284 34.2052Z" fill="#111820"/>
<path d="M91.8564 34.2052C91.347 33.5746 90.498 32.9441 89.4793 32.3135L84.7251 29.0028C84.2157 28.6875 83.8762 28.2147 83.5367 27.7417C83.3669 27.2688 83.197 26.7959 83.197 26.0076C83.197 25.3771 83.3668 24.7465 83.8762 24.4312C84.3855 24.1159 84.8949 23.8006 85.5741 23.8006C87.4417 23.8006 87.9512 25.2193 87.9512 28.2146V28.53H92.8751V27.7417C92.8751 26.0076 92.5355 24.5887 92.0261 23.4851C91.5168 22.3816 90.6678 21.4358 89.4793 20.8052C88.4606 20.1746 87.1022 19.8594 85.5741 19.8594C83.3668 19.8594 81.6689 20.4899 80.3106 21.5935C78.9523 22.8546 78.2732 24.4311 78.2732 26.4805C78.2732 29.3181 79.4617 31.5253 82.0085 33.1018L86.0835 35.9393C86.9325 36.5699 87.6116 37.2004 87.9512 37.6734C88.2907 38.304 88.4606 38.9346 88.4606 39.7229C88.4606 40.5111 88.2908 41.1418 87.7814 41.7724C87.272 42.2453 86.5928 42.5606 85.7438 42.5606C83.5365 42.5606 82.8575 40.9841 82.8575 37.9888V37.0429H77.9335V37.9888C77.9335 39.7229 78.2731 41.2994 78.7825 42.5606C79.2918 43.8218 80.3106 44.7675 81.3293 45.5557C82.5178 46.1863 83.8762 46.5018 85.5741 46.5018C87.1022 46.5018 88.4605 46.1865 89.6491 45.7135C90.8376 45.0829 91.6865 44.2947 92.1959 43.3488C92.7053 42.2453 93.0448 40.9841 93.0448 39.4076C93.0448 38.1465 92.875 37.0429 92.5354 36.2547C92.875 35.6241 92.3658 34.8358 91.8564 34.2052Z" fill="#111820"/>
<path d="M102.383 20.6445H97.1198V46.1833H102.383V20.6445Z" fill="#111820"/>
<path d="M32.7693 33.5768C34.2974 33.4191 37.1838 32.7886 37.1838 29.3204V28.8474L37.5235 20.4922H34.9766H32.0901L31.7506 28.8474V29.3204C31.5808 30.7392 30.3921 31.8427 28.864 31.8427C28.6942 31.8427 28.6943 31.8427 28.5245 31.8427V20.6498H23.2611V46.1885H28.5245V43.0356V35.1532C30.0526 35.1532 31.7506 35.9416 32.4298 37.2027C32.5996 37.518 32.7693 37.9909 32.7693 38.4638C32.7693 38.6214 32.7693 38.6216 32.7693 38.7792C32.7693 38.9369 33.1088 46.1885 33.1088 46.1885H38.3724L38.0327 39.5674C38.2025 36.4145 35.9953 34.2074 32.7693 33.5768Z" fill="#111820"/>
<path d="M121.06 39.4098C121.06 36.4145 118.853 34.2074 115.457 33.5768H115.627C115.797 33.5768 115.966 33.4192 116.136 33.4192C118.683 32.3156 120.211 29.9509 120.211 27.2709C120.211 23.9603 117.834 21.2804 114.438 20.6498C113.759 20.6498 113.08 20.4922 113.08 20.4922H106.119V45.8733H111.382V34.838C112.91 34.838 114.608 35.6262 115.287 36.8873C115.457 37.2026 115.627 37.6756 115.627 38.1486C115.627 38.3062 115.627 38.3062 115.627 38.4638C115.627 38.6214 115.627 38.6216 115.627 38.7792C115.627 38.7792 115.627 38.7792 115.627 38.9368C115.627 39.0945 115.966 46.0309 115.966 46.0309H121.23C121.4 46.0309 121.06 39.4098 121.06 39.4098ZM114.099 30.8969C113.759 31.2121 113.25 31.6851 112.061 31.6851H111.382V23.6451H111.891C113.08 23.6451 114.099 24.2756 114.438 24.9062C115.117 26.0097 115.118 26.6403 115.118 27.9015C115.118 29.478 114.778 30.2663 114.099 30.8969Z" fill="#111820"/>
<path d="M192.711 20.6484V41.3002C192.711 42.4037 191.693 43.3497 190.334 43.3497C189.146 43.3497 188.127 42.5613 187.957 41.3002V20.6484H182.694V39.4085C182.694 39.5661 182.694 39.566 182.694 39.7237C182.694 43.6649 186.09 46.8178 190.334 46.8178C194.579 46.8178 197.805 43.6649 197.805 39.7237C197.805 39.566 197.805 39.4083 197.805 39.2507V20.6484H192.711Z" fill="#111820"/>
<path d="M174.204 33.5768C174.544 33.5768 174.713 33.4192 174.883 33.4192C177.43 32.3156 178.958 29.9509 178.958 27.2709C178.958 23.9603 176.581 21.2804 173.185 20.6498C172.506 20.6498 171.827 20.4922 171.827 20.4922H164.866V45.8733H170.129V34.838C171.657 34.838 173.355 35.6262 174.034 36.8873C174.204 37.2026 174.374 37.6756 174.374 38.1486C174.374 38.3062 174.374 38.3062 174.374 38.4638C174.374 38.6214 174.374 38.6216 174.374 38.7792C174.374 38.7792 174.374 38.7792 174.374 38.9368C174.374 39.0945 174.713 46.0309 174.713 46.0309H179.977L179.637 39.4098C179.637 36.4145 177.6 34.2074 174.204 33.5768ZM172.676 30.8969C172.336 31.2121 171.827 31.6851 170.638 31.6851H169.959V23.6451H170.469C171.657 23.6451 172.676 24.2756 173.015 24.9062C173.695 26.0097 173.695 26.6403 173.695 27.9015C173.864 29.478 173.525 30.2663 172.676 30.8969Z" fill="#111820"/>
<path d="M146.526 41.1445H146.359C146.359 41.2997 146.526 41.2997 146.526 41.1445Z" fill="#FFC629"/>
<path d="M142.793 19.0742C134.304 19.0742 127.342 25.5377 127.342 33.4201C127.342 38.7801 130.399 43.3519 135.153 45.8742V39.2529C131.927 36.7306 130.738 33.2625 130.568 33.2625C130.399 32.6319 130.738 32.0012 131.417 31.8436C132.096 31.6859 132.776 32.0012 132.945 32.6318C133.115 32.9471 135.322 39.4107 142.623 39.4107H142.793C150.604 39.2531 152.471 32.9471 152.471 32.6318C152.641 32.0012 153.32 31.6859 153.999 31.8436C154.679 32.0012 155.018 32.6319 154.848 33.2625C154.848 33.2625 153.829 36.8884 150.264 39.4107V45.8742C154.848 43.3519 158.074 38.7801 158.074 33.4201C158.244 25.5377 151.283 19.0742 142.793 19.0742ZM139.228 32.0012C138.039 32.0012 137.19 31.213 137.19 30.1095C137.19 29.006 138.039 28.2176 139.228 28.2176C140.416 28.2176 141.265 29.006 141.265 30.1095C141.265 31.213 140.246 32.0012 139.228 32.0012ZM146.868 32.0012C145.68 32.0012 144.831 31.213 144.831 30.1095C144.831 29.006 145.68 28.2176 146.868 28.2176C148.057 28.2176 148.906 29.006 148.906 30.1095C148.906 31.213 148.057 32.0012 146.868 32.0012Z" fill="#FFC629"/>
<path d="M136.511 40.1953V54.2257C136.851 53.7528 137.53 53.4375 138.379 53.4375C139.228 53.4375 139.907 53.9106 140.416 54.5412H140.925C141.265 53.9106 142.114 53.4375 142.963 53.4375C143.812 53.4375 144.491 53.9106 145 54.5412H145.51C145.849 53.9106 146.698 53.4375 147.547 53.4375C148.396 53.4375 149.075 53.753 149.415 54.3835V40.1953C147.717 40.9835 145.849 41.614 143.303 41.614H143.133C140.077 41.7716 138.209 41.1412 136.511 40.1953Z" fill="white"/>
<path d="M139.227 28.375C138.039 28.375 137.19 29.1632 137.19 30.2667C137.19 31.3702 138.039 32.1584 139.227 32.1584C140.416 32.1584 141.265 31.3702 141.265 30.2667C141.265 29.1632 140.246 28.375 139.227 28.375Z" fill="#111820"/>
<path d="M146.868 28.375C145.679 28.375 144.83 29.1632 144.83 30.2667C144.83 31.3702 145.679 32.1584 146.868 32.1584C148.056 32.1584 148.905 31.3702 148.905 30.2667C148.905 29.1632 148.056 28.375 146.868 28.375Z" fill="#111820"/>
<path d="M142.793 16.707C132.776 16.707 124.795 24.2741 124.795 33.4176C124.795 40.0388 129.04 45.8717 135.153 48.5517V55.9612H137.36C137.36 55.4882 137.699 55.0151 138.209 55.0151C138.379 55.0151 138.379 55.0151 138.549 55.0151C138.718 55.0151 138.718 55.0151 138.888 55.0151C139.397 55.1728 139.737 55.4882 139.737 55.9612H141.774C141.774 55.4882 142.114 55.0151 142.623 55.0151C142.793 55.0151 142.793 55.0151 142.963 55.0151C143.133 55.0151 143.133 55.0151 143.303 55.0151C143.812 55.1728 144.151 55.4882 144.151 55.9612H146.189C146.189 55.4882 146.529 55.0152 147.038 54.8575C147.038 54.8575 147.038 54.8575 147.208 54.8575H147.378C147.547 54.8575 147.547 54.8575 147.717 54.8575C148.226 55.0152 148.566 55.3304 148.566 55.8034H150.773V48.5517C156.886 45.8717 161.13 40.0388 161.13 33.4176C160.791 24.2741 152.641 16.707 142.793 16.707ZM148.906 54.3847C148.566 53.7541 147.717 53.4387 147.038 53.4387C146.189 53.4387 145.51 53.9117 145 54.5423H144.491C144.152 53.9117 143.303 53.4387 142.454 53.4387C141.605 53.4387 140.926 53.9117 140.416 54.5423H139.907C139.567 53.9117 138.718 53.4387 137.869 53.4387C137.19 53.4387 136.511 53.754 136.002 54.2269V40.1965C137.7 41.1424 139.567 41.6151 142.114 41.6151H142.284C144.831 41.6151 146.868 40.9847 148.396 40.1965V54.3847H148.906ZM150.434 45.8717V39.4082C153.83 36.8859 155.018 33.26 155.018 33.26C155.188 32.6294 154.848 31.9988 154.169 31.8411C153.49 31.6835 152.811 31.9988 152.641 32.6293C152.641 32.9446 150.773 39.2506 142.963 39.4082H142.793C135.492 39.4082 133.285 32.9446 133.115 32.6293C132.945 31.9988 132.266 31.6835 131.587 31.8411C130.908 31.9988 130.568 32.6294 130.738 33.26C130.738 33.26 131.927 36.8857 135.322 39.2504V45.8717C130.738 43.3494 127.512 38.7776 127.512 33.4176C127.512 25.5352 134.474 19.0717 142.963 19.0717C151.452 19.0717 158.414 25.5352 158.414 33.4176C158.244 38.7776 155.018 43.3494 150.434 45.8717Z" fill="#111820"/>
</svg>
