<svg width="123" height="39" viewBox="0 0 123 39" fill="none" xmlns="http://www.w3.org/2000/svg">
<rect width="122.143" height="38.5714" fill="#909090"/>
<path d="M25.6982 10.7063L22.3046 24.5381H25.0562L25.6065 21.8913H28.3581L28.9084 24.5381H31.7516L28.5415 10.7063H25.6982ZM26.0651 20.0983L27.1657 14.6338L28.2663 20.0983H26.0651Z" fill="#0D0D0D"/>
<path d="M40.2813 18.0496C40.0062 17.7081 39.5476 17.3666 38.9973 17.0251L36.4291 15.232C36.154 15.0612 35.9706 14.8052 35.7872 14.549C35.6954 14.2929 35.6037 14.0367 35.6037 13.6098C35.6037 13.2683 35.6954 12.9268 35.9705 12.756C36.2457 12.5852 36.5209 12.4145 36.8877 12.4145C37.8966 12.4145 38.1718 13.1828 38.1718 14.8051V14.9759H40.8316V14.549C40.8316 13.6098 40.6482 12.8413 40.373 12.2436C40.0979 11.646 39.6393 11.1337 38.9973 10.7922C38.447 10.4507 37.7132 10.2799 36.8877 10.2799C35.6954 10.2799 34.7782 10.6214 34.0445 11.2191C33.3108 11.9021 32.9439 12.7559 32.9439 13.8659C32.9439 15.4028 33.5859 16.5982 34.9617 17.452L37.1629 18.9888C37.6215 19.3304 37.9884 19.6719 38.1718 19.928C38.3552 20.2695 38.447 20.6111 38.447 21.038C38.447 21.4649 38.3552 21.8065 38.0801 22.148C37.8049 22.4042 37.438 22.5749 36.9794 22.5749C35.7871 22.5749 35.4203 21.7211 35.4203 20.0988V19.5866H32.7604V20.0988C32.7604 21.038 32.9439 21.8919 33.219 22.5749C33.4942 23.258 34.0445 23.7702 34.5948 24.1971C35.2368 24.5386 35.9705 24.7095 36.8877 24.7095C37.7132 24.7095 38.4469 24.5387 39.089 24.2826C39.731 23.941 40.1896 23.5141 40.4647 23.0018C40.7399 22.4042 40.9233 21.7211 40.9233 20.8673C40.9233 20.1842 40.8316 19.5866 40.6481 19.1597C40.4647 18.7327 40.6482 18.3912 40.2813 18.0496Z" fill="#0D0D0D"/>
<path d="M49.911 18.0496C49.6359 17.7081 49.1773 17.3666 48.627 17.0251L46.0588 15.232C45.7837 15.0612 45.6003 14.8052 45.4169 14.549C45.3251 14.2929 45.2334 14.0367 45.2334 13.6098C45.2334 13.2683 45.3251 12.9268 45.6002 12.756C45.8754 12.5852 46.1506 12.4145 46.5174 12.4145C47.5263 12.4145 47.8015 13.1828 47.8015 14.8051V14.9759H50.4613V14.549C50.4613 13.6098 50.2779 12.8413 50.0027 12.2436C49.7276 11.646 49.269 11.1337 48.627 10.7922C48.0767 10.4507 47.3429 10.2799 46.5174 10.2799C45.3251 10.2799 44.4079 10.6214 43.6742 11.2191C42.9405 11.9021 42.5736 12.7559 42.5736 13.8659C42.5736 15.4028 43.2156 16.5982 44.5914 17.452L46.7926 18.9888C47.2512 19.3304 47.6181 19.6719 47.8015 19.928C47.9849 20.2695 48.0767 20.6111 48.0767 21.038C48.0767 21.4649 47.9849 21.8065 47.7098 22.148C47.4346 22.4042 47.0677 22.5749 46.6091 22.5749C45.4168 22.5749 45.05 21.7211 45.05 20.0988V19.5866H42.3901V20.0988C42.3901 21.038 42.5736 21.8919 42.8487 22.5749C43.1239 23.258 43.6742 23.7702 44.2245 24.1971C44.8665 24.5386 45.6002 24.7095 46.5174 24.7095C47.3429 24.7095 48.0766 24.5387 48.7187 24.2826C49.3607 23.941 49.8193 23.5141 50.0944 23.0018C50.3696 22.4042 50.553 21.7211 50.553 20.8673C50.553 20.1842 50.4613 19.5866 50.2778 19.1597C50.4613 18.8181 50.1862 18.3912 49.911 18.0496Z" fill="#0D0D0D"/>
<path d="M55.5986 10.7063H52.7548V24.5381H55.5986V10.7063Z" fill="#0D0D0D"/>
<path d="M17.9934 17.7083C18.8189 17.6229 20.378 17.2814 20.378 15.403V15.1468L20.5615 10.6216H19.1858H17.6265L17.4431 15.1468V15.403C17.3514 16.1715 16.7093 16.7691 15.8838 16.7691C15.7921 16.7691 15.7922 16.7691 15.7005 16.7691V10.707H12.8572V24.5388H15.7005V22.8312V18.5621C16.5259 18.5621 17.4431 18.9891 17.81 19.6721C17.9017 19.8429 17.9934 20.099 17.9934 20.3551C17.9934 20.4405 17.9934 20.4405 17.9934 20.5259C17.9934 20.6113 18.1768 24.5388 18.1768 24.5388H21.0201L20.8366 20.9528C20.9283 19.2452 19.736 18.0498 17.9934 17.7083Z" fill="#0D0D0D"/>
<path d="M65.6869 20.8675C65.6869 19.2452 64.4945 18.0498 62.6602 17.7083H62.752C62.8437 17.7083 62.9354 17.6229 63.0271 17.6229C64.4028 17.0253 65.2283 15.7445 65.2283 14.293C65.2283 12.5 63.9443 11.0485 62.1099 10.707C61.743 10.707 61.3762 10.6216 61.3762 10.6216H57.6157V24.3681H60.4591V18.3914C61.2845 18.3914 62.2016 18.8182 62.5685 19.5013C62.6602 19.6721 62.752 19.9282 62.752 20.1844C62.752 20.2698 62.752 20.2697 62.752 20.3551C62.752 20.4405 62.752 20.4406 62.752 20.5259C62.752 20.5259 62.752 20.5259 62.752 20.6113C62.752 20.6967 62.9354 24.4535 62.9354 24.4535H65.7786C65.8703 24.4535 65.6869 20.8675 65.6869 20.8675ZM61.9265 16.2568C61.7431 16.4276 61.4679 16.6837 60.8258 16.6837H60.4591V12.3293H60.7341C61.3762 12.3293 61.9265 12.6707 62.1099 13.0123C62.4768 13.61 62.4768 13.9515 62.4768 14.6346C62.4768 15.4884 62.2934 15.9153 61.9265 16.2568Z" fill="#0D0D0D"/>
<path d="M104.392 10.7069V21.8919C104.392 22.4896 103.842 23.0019 103.108 23.0019C102.466 23.0019 101.916 22.575 101.824 21.8919V10.7069H98.9808V20.8674C98.9808 20.9528 98.9808 20.9527 98.9808 21.0381C98.9808 23.1727 100.815 24.8803 103.108 24.8803C105.401 24.8803 107.144 23.1727 107.144 21.0381C107.144 20.9527 107.144 20.8673 107.144 20.7819V10.7069H104.392Z" fill="#0D0D0D"/>
<path d="M94.3942 17.7083C94.5776 17.7083 94.6693 17.6229 94.761 17.6229C96.1367 17.0253 96.9622 15.7445 96.9622 14.293C96.9622 12.5 95.6781 11.0485 93.8438 10.707C93.4769 10.707 93.1101 10.6216 93.1101 10.6216H89.3497V24.3681H92.193V18.3914C93.0184 18.3914 93.9355 18.8182 94.3024 19.5013C94.3941 19.6721 94.4859 19.9282 94.4859 20.1844C94.4859 20.2698 94.4859 20.2697 94.4859 20.3551C94.4859 20.4405 94.4859 20.4406 94.4859 20.5259C94.4859 20.5259 94.4859 20.5259 94.4859 20.6113C94.4859 20.6967 94.6693 24.4535 94.6693 24.4535H97.5125L97.3291 20.8675C97.3291 19.2452 96.2285 18.0498 94.3942 17.7083ZM93.5687 16.2568C93.3853 16.4276 93.1101 16.6837 92.468 16.6837H92.1013V12.3293H92.3763C93.0184 12.3293 93.5687 12.6707 93.7521 13.0123C94.119 13.61 94.119 13.9515 94.119 14.6346C94.2107 15.4884 94.0273 15.9153 93.5687 16.2568Z" fill="#0D0D0D"/>
<path d="M79.4429 21.8062H79.3525C79.3525 21.8901 79.4429 21.8901 79.4429 21.8062Z" fill="#909090"/>
<path d="M77.4263 9.85291C72.8404 9.85291 69.0799 13.3535 69.0799 17.6226C69.0799 20.5256 70.7309 23.0017 73.299 24.3678V20.7817C71.5564 19.4156 70.9143 17.5373 70.8225 17.5373C70.7308 17.1958 70.9143 16.8542 71.2811 16.7688C71.648 16.6834 72.0149 16.8542 72.1066 17.1957C72.1983 17.3665 73.3906 20.8672 77.3345 20.8672H77.4263C81.6453 20.7818 82.6541 17.3665 82.6541 17.1957C82.7458 16.8542 83.1127 16.6834 83.4796 16.7688C83.8465 16.8542 84.0299 17.1958 83.9382 17.5373C83.9382 17.5373 83.3878 19.5011 81.4618 20.8672V24.3678C83.9381 23.0017 85.6808 20.5256 85.6808 17.6226C85.7726 13.3535 82.0121 9.85291 77.4263 9.85291ZM75.5001 16.8542C74.8581 16.8542 74.3996 16.4273 74.3996 15.8296C74.3996 15.232 74.8581 14.805 75.5001 14.805C76.1421 14.805 76.6008 15.232 76.6008 15.8296C76.6008 16.4273 76.0504 16.8542 75.5001 16.8542ZM79.6274 16.8542C78.9854 16.8542 78.5268 16.4273 78.5268 15.8296C78.5268 15.232 78.9854 14.805 79.6274 14.805C80.2694 14.805 80.7281 15.232 80.7281 15.8296C80.7281 16.4273 80.2694 16.8542 79.6274 16.8542Z" fill="#909090"/>
<path d="M74.0329 21.2941V28.893C74.2163 28.6369 74.5832 28.4661 75.0418 28.4661C75.5004 28.4661 75.8673 28.7223 76.1424 29.0639H76.4175C76.601 28.7223 77.0596 28.4661 77.5182 28.4661C77.9768 28.4661 78.3436 28.7223 78.6188 29.0639H78.894C79.0774 28.7223 79.5359 28.4661 79.9945 28.4661C80.4531 28.4661 80.82 28.637 81.0034 28.9785V21.2941C80.0862 21.721 79.0774 22.0625 77.7016 22.0625H77.6099C75.959 22.1479 74.9501 21.8064 74.0329 21.2941Z" fill="white"/>
<path d="M75.5003 14.8898C74.8581 14.8898 74.3995 15.3166 74.3995 15.9143C74.3995 16.512 74.8581 16.9389 75.5003 16.9389C76.1424 16.9389 76.6012 16.512 76.6012 15.9143C76.6012 15.3166 76.0507 14.8898 75.5003 14.8898Z" fill="#111820"/>
<path d="M79.6272 14.8898C78.985 14.8898 78.5264 15.3166 78.5264 15.9143C78.5264 16.512 78.985 16.9389 79.6272 16.9389C80.2693 16.9389 80.728 16.512 80.728 15.9143C80.728 15.3166 80.2693 14.8898 79.6272 14.8898Z" fill="#111820"/>
<path d="M77.4262 8.57147C72.0149 8.57147 67.704 12.6698 67.704 17.6219C67.704 21.208 69.9971 24.3671 73.2989 25.8186V29.8316H74.4912C74.4912 29.5755 74.6746 29.3192 74.9497 29.3192C75.0415 29.3192 75.0415 29.3192 75.1332 29.3192C75.225 29.3192 75.2249 29.3192 75.3166 29.3192C75.5918 29.4046 75.7752 29.5755 75.7752 29.8316H76.8758C76.8758 29.5755 77.0592 29.3192 77.3344 29.3192C77.4261 29.3192 77.4262 29.3192 77.5179 29.3192C77.6096 29.3192 77.6096 29.3192 77.7013 29.3192C77.9764 29.4046 78.1599 29.5755 78.1599 29.8316H79.2605C79.2605 29.5755 79.444 29.3192 79.7191 29.2339C79.7191 29.2339 79.7191 29.2339 79.8108 29.2339H79.9025C79.9942 29.2339 79.9942 29.2339 80.0859 29.2339C80.3611 29.3192 80.5445 29.49 80.5445 29.7461H81.7369V25.8186C85.0387 24.3671 87.3316 21.208 87.3316 17.6219C87.1482 12.6698 82.7458 8.57147 77.4262 8.57147ZM80.728 28.9778C80.5446 28.6363 80.086 28.4654 79.7191 28.4654C79.2605 28.4654 78.8936 28.7216 78.6184 29.0631H78.3434C78.1599 28.7216 77.7013 28.4654 77.2427 28.4654C76.7841 28.4654 76.4173 28.7216 76.1421 29.0631H75.8669C75.6835 28.7216 75.2249 28.4654 74.7664 28.4654C74.3995 28.4654 74.0326 28.6362 73.7575 28.8923V21.2934C74.6747 21.8057 75.6835 22.0618 77.0593 22.0618H77.151C78.5267 22.0618 79.6273 21.7203 80.4528 21.2934V28.9778H80.728ZM81.5535 24.3671V20.8665C83.3878 19.5004 84.0298 17.5366 84.0298 17.5366C84.1215 17.1951 83.9381 16.8535 83.5712 16.7681C83.2043 16.6827 82.8374 16.8535 82.7457 17.195C82.7457 17.3658 81.7369 20.7811 77.5179 20.8665H77.4262C73.4823 20.8665 72.2899 17.3658 72.1982 17.195C72.1065 16.8535 71.7396 16.6827 71.3727 16.7681C71.0059 16.8535 70.8224 17.1951 70.9142 17.5366C70.9142 17.5366 71.5562 19.5003 73.3906 20.781V24.3671C70.9142 23.001 69.1716 20.5249 69.1716 17.6219C69.1716 13.3528 72.932 9.8522 77.5179 9.8522C82.1038 9.8522 85.8641 13.3528 85.8641 17.6219C85.7724 20.5249 84.0298 23.001 81.5535 24.3671Z" fill="#111820"/>
</svg>
