<svg width="102" height="51" viewBox="0 0 102 51" fill="none" xmlns="http://www.w3.org/2000/svg">
<rect x="-7.62939e-06" y="1.78949" width="102" height="48.3158" fill="#4F4F4F"/>
<path d="M51.6491 25.2939H49.4288C48.5243 25.2939 47.8664 26.036 47.8664 26.8605V34.7754C47.8664 35.6823 48.5243 36.3419 49.4288 36.3419H51.6491C52.5536 36.3419 53.2115 35.5999 53.2115 34.7754V32.7142H51.4846V34.4457C51.4846 34.6106 51.3202 34.7754 51.1557 34.7754H49.9222C49.7578 34.7754 49.5933 34.6106 49.5933 34.4457V27.1903C49.5933 27.0254 49.7578 26.8605 49.9222 26.8605H51.1557C51.3202 26.8605 51.4846 27.0254 51.4846 27.1903V29.0866H53.2115V26.9429C53.2115 25.9535 52.4714 25.2939 51.6491 25.2939Z" fill="white"/>
<path d="M58.8859 27.5206H53.8698V29.0046H55.5144V36.3424H57.2413V29.0046H58.8859V27.5206Z" fill="white"/>
<path d="M31.421 32.4674H31.2565V27.5206H29.5297V36.3424H31.0921L32.9012 31.5605H33.0656V36.3424H34.7925V27.5206H33.2301L31.421 32.4674Z" fill="white"/>
<path d="M24.1015 25.2939L22.0457 36.3419H23.8549L25.2528 27.1079H25.4172L26.8974 36.3419H28.7065L26.6507 25.2939H24.1015Z" fill="white"/>
<path d="M60.5304 27.5206L58.639 36.4249H60.3659L60.6126 35.2707H62.9151L63.1618 36.4249H64.8886L63.0795 27.5206H60.5304ZM60.9415 33.7041L61.7638 29.0046H61.9283L62.6684 33.7041H60.9415Z" fill="white"/>
<path d="M41.2879 27.5206L39.3966 36.4249H41.1234L41.3701 35.2707H43.6726L43.9193 36.4249H45.6462L43.8371 27.5206H41.2879ZM41.6168 33.7041L42.4391 29.0046H42.6036L43.3437 33.7041H41.6168Z" fill="white"/>
<path d="M39.8901 27.5206H36.0252V36.3424H37.752V29.0046H39.8901V27.5206Z" fill="white"/>
<path d="M75.1681 27.5206H73.2768C72.3722 27.5206 71.7144 28.2626 71.7144 29.0871V34.7759C71.7144 35.6828 72.4545 36.3424 73.2768 36.3424H75.1681C76.0727 36.3424 76.7305 35.6004 76.7305 34.7759V29.0871C76.7305 28.1802 75.9904 27.5206 75.1681 27.5206ZM75.0036 34.4462C75.0036 34.6111 74.8392 34.7759 74.6747 34.7759H73.6879C73.5235 34.7759 73.359 34.6111 73.359 34.4462V29.4168C73.359 29.2519 73.5235 29.0871 73.6879 29.0871H74.6747C74.8392 29.0871 75.0036 29.2519 75.0036 29.4168V34.4462Z" fill="white"/>
<path d="M14.3158 11.8545V36.3414H19.003V16.3067H85.8573V36.3414H90.5445V11.8545H14.3158Z" fill="white"/>
<path d="M83.3911 27.5206H81.4998L80.0196 31.2307H79.6907V27.5206H78.0461V36.3424H79.6907V32.7147H80.0196L81.582 36.3424H83.4734L81.4998 31.8902L83.3911 27.5206Z" fill="white"/>
<path d="M69.4114 32.0546V31.8897C70.0693 31.7248 70.5627 31.1477 70.5627 30.4881V29.1689C70.5627 28.262 69.8226 27.6024 69.0003 27.6024H65.711V36.5068H69.0825C69.9871 36.5068 70.6449 35.7648 70.6449 34.9403V33.7036C70.6449 32.7966 70.1515 32.1371 69.4114 32.0546ZM67.4379 29.004H68.5891C68.7536 29.004 68.9181 29.1689 68.9181 29.3338V30.8179C68.9181 30.9828 68.7536 31.1477 68.5891 31.1477H67.4379V29.004ZM69.0003 34.4456C69.0003 34.6105 68.8358 34.7753 68.6714 34.7753H67.4379V32.7141H68.6714C68.8358 32.7141 69.0003 32.879 69.0003 33.0439V34.4456Z" fill="white"/>
</svg>
