<svg width="157" height="74" viewBox="0 0 157 74" fill="none" xmlns="http://www.w3.org/2000/svg">
<path d="M157 0H0V73.2667H157V0Z" fill="#087B35"/>
<path d="M77.3303 38.418H74.0056C72.6511 38.418 71.666 39.5262 71.666 40.7576V52.5788C71.666 53.9333 72.6511 54.9184 74.0056 54.9184H77.3303C78.6848 54.9184 79.6699 53.8101 79.6699 52.5788V49.5003H77.084V52.0863C77.084 52.3326 76.8378 52.5788 76.5915 52.5788H74.7444C74.4982 52.5788 74.2519 52.3326 74.2519 52.0863V41.2502C74.2519 41.0039 74.4982 40.7576 74.7444 40.7576H76.5915C76.8378 40.7576 77.084 41.0039 77.084 41.2502V44.0824H79.6699V40.8807C79.6699 39.4031 78.5617 38.418 77.3303 38.418Z" fill="white"/>
<path d="M88.1662 41.7422H80.6548V43.9586H83.1176V54.9178H85.7034V43.9586H88.1662V41.7422Z" fill="white"/>
<path d="M47.0384 49.1304H46.7922V41.7422H44.2063V54.9178H46.5459L49.2549 47.7759H49.5012V54.9178H52.0871V41.7422H49.7475L47.0384 49.1304Z" fill="white"/>
<path d="M36.0793 38.418L33.0009 54.9184H35.7099L37.8032 41.1271H38.0495L40.2659 54.9184H42.975L39.8965 38.418H36.0793Z" fill="white"/>
<path d="M90.629 41.7422L87.7969 55.0409H90.3828L90.7522 53.3171H94.2L94.5694 55.0409H97.1553L94.4463 41.7422H90.629ZM91.2447 50.9775L92.4761 43.9586H92.7224L93.8306 50.9775H91.2447Z" fill="white"/>
<path d="M61.8148 41.7422L58.9827 55.0409H61.5686L61.938 53.3171H65.3858L65.7552 55.0409H68.3411L65.6321 41.7422H61.8148ZM62.3073 50.9775L63.5387 43.9586H63.785L64.8932 50.9775H62.3073Z" fill="white"/>
<path d="M59.7216 41.7422H53.9341V54.9178H56.52V43.9586H59.7216V41.7422Z" fill="white"/>
<path d="M112.548 41.7422H109.715C108.361 41.7422 107.376 42.8505 107.376 44.0818V52.5782C107.376 53.9327 108.484 54.9178 109.715 54.9178H112.548C113.902 54.9178 114.887 53.8095 114.887 52.5782V44.0818C114.887 42.7273 113.779 41.7422 112.548 41.7422ZM112.301 52.0857C112.301 52.332 112.055 52.5782 111.809 52.5782H110.331C110.085 52.5782 109.839 52.332 109.839 52.0857V44.5743C109.839 44.328 110.085 44.0818 110.331 44.0818H111.809C112.055 44.0818 112.301 44.328 112.301 44.5743V52.0857Z" fill="white"/>
<path d="M21.426 18.3477V54.9194H28.4448V24.9971H128.555V54.9194H135.574V18.3477H21.426Z" fill="white"/>
<path d="M124.861 41.7422H122.029L119.813 47.2834H119.32V41.7422H116.857V54.9178H119.32V49.4997H119.813L122.152 54.9178H124.984L122.029 48.2684L124.861 41.7422Z" fill="white"/>
<path d="M103.928 48.5127V48.2664C104.913 48.0201 105.652 47.1582 105.652 46.1731V44.2029C105.652 42.8484 104.544 41.8633 103.312 41.8633H98.3867V55.1622H103.435C104.79 55.1622 105.775 54.0539 105.775 52.8225V50.9755C105.775 49.621 105.036 48.6359 103.928 48.5127ZM100.973 43.9566H102.697C102.943 43.9566 103.189 44.2029 103.189 44.4491V46.6657C103.189 46.9119 102.943 47.1582 102.697 47.1582H100.973V43.9566ZM103.312 52.0837C103.312 52.33 103.066 52.5762 102.82 52.5762H100.973V49.4977H102.82C103.066 49.4977 103.312 49.744 103.312 49.9903V52.0837Z" fill="white"/>
</svg>
