<svg width="162" height="24" viewBox="0 0 162 24" fill="none" xmlns="http://www.w3.org/2000/svg">
<path fill-rule="evenodd" clip-rule="evenodd" d="M63.7049 0.435908C62.8077 0.670768 61.4187 1.25211 60.618 1.72774C59.8176 2.20337 58.603 3.19666 57.9194 3.93516C57.2356 4.67366 56.3951 5.83527 56.0513 6.51642C55.7074 7.1978 55.2673 8.29002 55.0731 8.94404C54.8752 9.61053 54.7203 10.9124 54.7203 11.9075C54.7203 12.8837 54.8671 14.2464 55.0468 14.9359C55.2263 15.6252 55.6126 16.6618 55.9051 17.239C56.1977 17.8162 56.8808 18.8335 57.4235 19.4996C57.9661 20.1656 59.0819 21.1685 59.9029 21.7284C60.7242 22.2883 61.9536 22.9417 62.6348 23.1801C63.3162 23.4186 64.5776 23.7231 65.4384 23.8566C66.5856 24.0346 67.4918 24.0343 68.8337 23.8557C69.8404 23.7218 71.1937 23.43 71.8409 23.2074C72.4884 22.9846 73.4072 22.6022 73.8829 22.3577C74.3587 22.113 75.1666 21.6078 75.6781 21.2349L76.6084 20.5568V15.6335V10.71H72.2308H67.8531V12.461V14.2121H70.2608H72.6685V16.4834V18.7547L71.6091 19.2104C71.0265 19.4611 70.1153 19.7664 69.5845 19.8887C69.0535 20.0111 67.9698 20.1135 67.1761 20.1166C66.3046 20.1197 65.2439 19.9535 64.4983 19.6972C63.8196 19.4637 62.8143 18.9629 62.2644 18.5846C61.7146 18.2064 60.9249 17.4371 60.5092 16.8752C60.0938 16.3133 59.5446 15.1791 59.2885 14.3546C58.9361 13.219 58.8488 12.4978 58.9289 11.3791C58.9955 10.4506 59.2421 9.44943 59.5939 8.68116C59.9014 8.00919 60.5556 7.02269 61.0477 6.48884C61.5397 5.95499 62.5582 5.18891 63.3109 4.78617C64.5108 4.14419 64.9249 4.04285 66.6725 3.96449C68.0858 3.90123 69.018 3.97762 69.8782 4.2278C70.5452 4.42173 71.61 4.92954 72.2443 5.35635L73.3976 6.13251L74.401 4.9952C74.953 4.36964 75.4936 3.70665 75.6026 3.52169C75.7504 3.27107 75.6112 3.02571 75.0554 2.5584C74.6454 2.21366 73.7104 1.64391 72.9776 1.29217C72.2445 0.940649 71.0133 0.503979 70.2416 0.322089C69.4696 0.140199 68.0501 -0.00469875 67.0871 0.000116635C66.0824 0.0051509 64.6406 0.19098 63.7049 0.435908ZM90.5366 0.331938C89.8305 0.502885 88.649 0.962536 87.9114 1.35346C87.1735 1.74438 85.9176 2.70439 85.1204 3.48689C84.2473 4.34381 83.4057 5.43646 83.0039 6.23429C82.6368 6.96294 82.1743 8.11754 81.9758 8.80023C81.7711 9.50459 81.614 10.8251 81.6129 11.8532C81.6116 12.8495 81.7214 14.1543 81.8571 14.7525C81.9926 15.3505 82.3989 16.4582 82.7594 17.214C83.1201 17.9696 83.9768 19.1962 84.663 19.9397C85.3494 20.6831 86.4948 21.67 87.2083 22.1325C87.9219 22.5952 89.1155 23.1621 89.8605 23.3922C90.6056 23.6222 91.8931 23.8754 92.7217 23.9549C93.7557 24.0538 94.7433 23.9912 95.8699 23.7551C96.7728 23.5659 98.2233 23.0608 99.0934 22.6326C100.114 22.1301 101.162 21.3721 102.048 20.4955C102.803 19.7482 103.733 18.5459 104.113 17.8236C104.494 17.1013 104.981 15.9193 105.196 15.197C105.457 14.3202 105.583 13.1927 105.575 11.8044C105.567 10.2518 105.441 9.3645 105.078 8.30227C104.811 7.51977 104.336 6.43631 104.022 5.89458C103.708 5.35285 102.906 4.33571 102.238 3.63398C101.57 2.93246 100.389 2.00353 99.6134 1.56971C98.8375 1.13567 97.5568 0.601599 96.7675 0.382718C95.8855 0.138227 94.6555 -0.00820408 93.5765 0.00295886C92.6108 0.0130274 91.2428 0.161211 90.5366 0.331938ZM119.65 0.331501C118.945 0.502228 117.665 1.01003 116.805 1.46005C115.841 1.96435 114.695 2.82543 113.818 3.70358C113.036 4.48718 112.077 5.72955 111.688 6.46433C111.299 7.19911 110.821 8.47957 110.626 9.30978C110.381 10.3543 110.304 11.3927 110.379 12.6799C110.446 13.8454 110.671 15.0309 110.981 15.8537C111.253 16.576 111.793 17.6594 112.18 18.2614C112.568 18.8633 113.407 19.8695 114.045 20.4972C114.683 21.125 115.854 21.978 116.646 22.3927C117.438 22.8075 118.677 23.3234 119.4 23.539C120.299 23.8078 121.402 23.9278 122.902 23.9197C124.247 23.9124 125.633 23.7627 126.498 23.5309C127.271 23.3236 128.404 22.9023 129.015 22.5946C129.625 22.287 130.642 21.6936 131.274 21.2762L132.423 20.5172V15.6136V10.71H127.927H123.431L123.494 12.4063L123.558 14.1026L125.919 14.1648L128.279 14.2269L128.217 16.5718L128.155 18.9165L126.842 19.4536C125.717 19.9137 125.167 19.9923 123.011 20.0004C120.606 20.0093 120.436 19.9791 119.177 19.3225C118.453 18.9443 117.387 18.1292 116.809 17.511C116.231 16.8927 115.518 15.8644 115.226 15.2259C114.934 14.5874 114.633 13.481 114.559 12.7672C114.466 11.8808 114.537 11.0256 114.782 10.0697C114.983 9.28527 115.504 8.13264 115.968 7.44667C116.494 6.66789 117.293 5.88648 118.164 5.29791C118.917 4.78901 119.946 4.26064 120.451 4.12384C120.956 3.98682 122.108 3.87759 123.011 3.88131C124.126 3.88569 125.043 4.03387 125.867 4.34315C126.535 4.59377 127.538 5.08822 128.096 5.44215L129.111 6.08544L130.345 4.67979L131.579 3.27414L130.961 2.73263C130.622 2.43495 129.784 1.88928 129.099 1.52046C128.415 1.15143 127.094 0.655009 126.164 0.417085C125.11 0.147642 123.806 -0.00842296 122.703 0.00295886C121.729 0.0130274 120.355 0.160774 119.65 0.331501ZM146.213 0.317056C145.55 0.498727 144.416 0.944368 143.692 1.30749C142.968 1.67083 141.906 2.36972 141.331 2.86089C140.757 3.35184 139.891 4.33637 139.407 5.04839C138.924 5.76063 138.275 7.00562 137.966 7.81526C137.571 8.85057 137.373 9.87143 137.299 11.2572C137.226 12.6346 137.301 13.6811 137.549 14.7367C137.744 15.5669 138.222 16.847 138.611 17.5809C139 18.315 139.958 19.5679 140.741 20.3652C141.69 21.3334 142.672 22.0692 143.695 22.5797C144.538 23.0004 145.769 23.4762 146.431 23.6373C147.094 23.7984 148.374 23.9302 149.277 23.9302C150.18 23.9302 151.46 23.7984 152.122 23.6373C152.784 23.4762 154 23.0074 154.824 22.5954C155.795 22.1106 156.843 21.3259 157.8 20.3694C158.751 19.4184 159.521 18.3903 159.963 17.4824C160.34 16.7071 160.799 15.4855 160.982 14.768C161.165 14.0505 161.315 12.8574 161.315 12.1165C161.315 11.3758 161.217 10.2392 161.098 9.59061C160.978 8.94228 160.492 7.62374 160.018 6.66067C159.484 5.57589 158.713 4.45828 157.992 3.7235C157.352 3.07123 156.303 2.2014 155.662 1.79056C155.021 1.37994 153.937 0.843683 153.254 0.598974C152.401 0.293416 151.294 0.127941 149.715 0.0705944C148.113 0.012372 147.051 0.087012 146.213 0.317056ZM0 12.016V23.4051H2.19406H4.38791L4.32815 15.197C4.2951 10.6824 4.33691 7.0135 4.42096 7.04371C4.50479 7.07369 6.50646 9.83181 8.86906 13.1724C11.2314 16.5129 13.2401 19.2463 13.3329 19.2463C13.4255 19.2463 14.1734 18.2861 14.9951 17.1122C15.8168 15.9384 17.7775 13.1564 19.3526 10.9299L22.2164 6.88173L22.2738 15.1434L22.3311 23.4051H24.3823C26.3244 23.4051 26.4406 23.3788 26.5656 22.9126C26.638 22.6416 26.6989 17.52 26.7004 11.5308L26.7035 0.641437L24.2411 0.645378L21.7787 0.649098L17.6199 6.551C15.3326 9.79701 13.3887 12.4299 13.3001 12.4021C13.2114 12.3743 11.287 9.74142 9.02359 6.55123L4.90819 0.750877L2.4541 0.688933L0 0.626992V12.016ZM33.9266 12.0233V23.4051H42.244H50.5615V21.6575V19.9098L44.3781 19.8518L38.1947 19.7935L38.1339 16.7896L38.073 13.7857L38.601 13.6533C38.8914 13.5804 39.4115 13.5434 39.7565 13.571C40.1014 13.5988 42.181 13.6066 44.3781 13.5885L48.3727 13.5554V11.8044V10.0533H43.229H38.0853V7.09843V4.14353H44.214H50.3426V2.39249V0.641437H42.1346H33.9266V12.0233ZM96.5852 4.58108C97.2635 4.83498 98.2988 5.47433 98.8859 6.00205C99.4729 6.52977 100.29 7.58325 100.702 8.3432C101.413 9.65452 101.451 9.83685 101.451 11.9138C101.451 13.81 101.376 14.2637 100.886 15.3069C100.576 15.9695 99.8605 16.9722 99.2971 17.5356C98.734 18.099 97.7076 18.8375 97.0166 19.1767C95.9065 19.7217 95.5186 19.7935 93.6811 19.7935C91.8869 19.7935 91.4314 19.7136 90.3596 19.2113C89.6765 18.8909 88.6668 18.2136 88.1161 17.7058C87.5544 17.1882 86.8181 16.1807 86.4394 15.4111C86.0187 14.5566 85.7202 13.5543 85.6475 12.753C85.5832 12.0454 85.6484 10.9 85.792 10.2076C85.9581 9.40762 86.3862 8.45243 86.9671 7.58609C87.5448 6.72458 88.3235 5.92304 89.0846 5.40648C89.7467 4.95733 90.8302 4.44055 91.4923 4.25801C92.2244 4.0562 93.2162 3.96427 94.0239 4.02293C94.7541 4.07612 95.9067 4.32717 96.5852 4.58108ZM152.707 4.80762C153.562 5.22524 154.46 5.90771 155.154 6.66657C155.817 7.39195 156.439 8.36334 156.727 9.12374C157.063 10.0102 157.205 10.8774 157.209 12.0605C157.213 13.4817 157.112 13.9588 156.545 15.1688C156.176 15.9581 155.423 17.0518 154.863 17.6115C154.306 18.1688 153.289 18.8876 152.603 19.2091C151.526 19.7139 151.073 19.7935 149.277 19.7935C147.488 19.7935 147.026 19.713 145.967 19.2168C145.291 18.8994 144.336 18.2776 143.846 17.8345C143.355 17.3915 142.702 16.5987 142.394 16.0726C142.085 15.5466 141.675 14.4977 141.481 13.7417C141.243 12.8139 141.175 11.974 141.27 11.1556C141.347 10.4891 141.688 9.3529 142.027 8.6306C142.366 7.90829 143.049 6.90209 143.545 6.39451C144.041 5.88714 144.942 5.22065 145.548 4.91378C146.153 4.60712 147.018 4.26282 147.47 4.149C147.922 4.03519 148.981 3.98835 149.824 4.04504C150.932 4.11946 151.731 4.33089 152.707 4.80762Z" fill="black"/>
</svg>
