<svg width="122" height="19" viewBox="0 0 122 19" fill="none" xmlns="http://www.w3.org/2000/svg">
<path fill-rule="evenodd" clip-rule="evenodd" d="M48.1789 0.330536C47.5004 0.508622 46.4499 0.949439 45.8444 1.31009C45.239 1.67075 44.3204 2.42392 43.8035 2.98391C43.2863 3.54389 42.6507 4.4247 42.3906 4.9412C42.1306 5.45787 41.7977 6.28606 41.6508 6.78198C41.5012 7.28736 41.384 8.27456 41.384 9.02906C41.384 9.76929 41.4951 10.8026 41.631 11.3254C41.7667 11.8481 42.0589 12.6341 42.28 13.0718C42.5014 13.5094 43.018 14.2809 43.4284 14.7859C43.8387 15.291 44.6826 16.0514 45.3035 16.476C45.9246 16.9006 46.8545 17.396 47.3696 17.5767C47.8849 17.7576 48.8389 17.9885 49.49 18.0897C50.3575 18.2247 51.0428 18.2245 52.0577 18.0891C52.819 17.9875 53.8426 17.7663 54.332 17.5975C54.8217 17.4285 55.5166 17.1386 55.8763 16.9532C56.2362 16.7676 56.8472 16.3845 57.2341 16.1017L57.9376 15.5876V11.8544V8.12103H54.6269H51.3161V9.4488V10.7766H53.137H54.9579V12.4988V14.2211L54.1567 14.5667C53.7161 14.7567 53.027 14.9882 52.6255 15.081C52.2239 15.1738 51.4044 15.2515 50.8041 15.2538C50.145 15.2561 49.3428 15.1301 48.779 14.9358C48.2656 14.7587 47.5053 14.379 47.0895 14.0922C46.6737 13.8054 46.0764 13.222 45.7621 12.7959C45.4479 12.3699 45.0326 11.5098 44.8389 10.8846C44.5724 10.0236 44.5063 9.47668 44.5669 8.62841C44.6172 7.92436 44.8038 7.16521 45.0698 6.58265C45.3024 6.07312 45.7972 5.32509 46.1693 4.92029C46.5414 4.51549 47.3117 3.93459 47.8809 3.6292C48.7884 3.14241 49.1016 3.06557 50.4232 3.00615C51.4921 2.95818 52.1971 3.01611 52.8477 3.20581C53.3521 3.35286 54.1574 3.73791 54.6371 4.06156L55.5093 4.65009L56.2682 3.78771C56.6856 3.31336 57.0945 2.81063 57.1769 2.67039C57.2887 2.48035 57.1834 2.2943 56.7631 1.93995C56.4531 1.67855 55.7459 1.24653 55.1917 0.979813C54.6373 0.713265 53.7062 0.382152 53.1225 0.24423C52.5386 0.106309 51.4651 -0.00356291 50.7368 8.84406e-05C49.977 0.00390577 48.8866 0.144814 48.1789 0.330536ZM68.4713 0.251699C67.9373 0.381322 67.0437 0.729861 66.4859 1.02629C65.9278 1.32271 64.978 2.05066 64.3751 2.644C63.7148 3.29378 63.0783 4.1223 62.7744 4.72726C62.4968 5.27978 62.147 6.15528 61.9968 6.67294C61.8421 7.20703 61.7232 8.20833 61.7224 8.9879C61.7214 9.7434 61.8045 10.7327 61.9071 11.1863C62.0096 11.6398 62.3168 12.4798 62.5895 13.0529C62.8623 13.6258 63.5102 14.5559 64.0291 15.1197C64.5483 15.6833 65.4145 16.4317 65.9542 16.7824C66.4938 17.1332 67.3965 17.5631 67.96 17.7375C68.5234 17.912 69.4971 18.104 70.1238 18.1643C70.9058 18.2393 71.6527 18.1918 72.5047 18.0127C73.1876 17.8693 74.2846 17.4863 74.9426 17.1616C75.7145 16.7806 76.5072 16.2058 77.1773 15.5411C77.7484 14.9745 78.4513 14.0628 78.739 13.5151C79.0269 12.9674 79.3953 12.0711 79.5577 11.5234C79.7551 10.8586 79.8504 10.0036 79.8448 8.95089C79.8385 7.77366 79.7433 7.10081 79.4688 6.29536C79.2667 5.70201 78.9072 4.88046 78.6701 4.46968C78.4329 4.0589 77.8257 3.28763 77.3208 2.75553C76.8158 2.2236 75.9226 1.51922 75.3359 1.19026C74.7491 0.861143 73.7805 0.456174 73.1836 0.290203C72.5165 0.104814 71.5863 -0.0062209 70.7703 0.00224361C70.0399 0.00987826 69.0053 0.122241 68.4713 0.251699ZM90.4894 0.251367C89.9564 0.380824 88.988 0.765877 88.3374 1.10711C87.6087 1.48951 86.7417 2.14244 86.0787 2.80831C85.4869 3.40249 84.762 4.34454 84.468 4.9017C84.1739 5.45886 83.8123 6.42979 83.6647 7.05932C83.479 7.85133 83.4212 8.6387 83.4775 9.61477C83.5283 10.4986 83.6985 11.3975 83.933 12.0213C84.1388 12.569 84.547 13.3906 84.8402 13.847C85.1332 14.3034 85.7678 15.0664 86.2504 15.5424C86.7329 16.0184 87.618 16.6652 88.2173 16.9797C88.8163 17.2942 89.7536 17.6854 90.2999 17.8489C90.9802 18.0527 91.8145 18.1437 92.9484 18.1375C93.9655 18.1321 95.0142 18.0185 95.668 17.8428C96.2532 17.6856 97.1098 17.3661 97.5717 17.1327C98.0334 16.8996 98.8021 16.4496 99.2802 16.1331L100.149 15.5575V11.8393V8.12103H96.7488H93.3484L93.3967 9.40731L93.445 10.6936L95.23 10.7407L97.0152 10.7878L96.9681 12.5659L96.9213 14.3438L95.9281 14.7511C95.0774 15.0999 94.6617 15.1595 93.0312 15.1657C91.2121 15.1725 91.0833 15.1496 90.1317 14.6516C89.5839 14.3649 88.7779 13.7468 88.3406 13.2781C87.9032 12.8092 87.3644 12.0295 87.1434 11.5453C86.9223 11.0612 86.6953 10.2222 86.6389 9.68099C86.5688 9.00881 86.6223 8.36036 86.8074 7.63557C86.9593 7.04073 87.3535 6.16673 87.7044 5.64658C88.1027 5.05605 88.7066 4.46354 89.3656 4.01724C89.935 3.63136 90.7134 3.23071 91.0953 3.12698C91.4771 3.02308 92.3484 2.94026 93.0312 2.94308C93.8741 2.9464 94.5675 3.05876 95.1913 3.29328C95.6965 3.48331 96.455 3.85824 96.8771 4.12662L97.6444 4.6144L98.5776 3.54854L99.5109 2.48268L99.0438 2.07207C98.7869 1.84635 98.1531 1.43258 97.6354 1.15292C97.1178 0.873094 96.1188 0.496673 95.4156 0.316262C94.6187 0.111952 93.6326 -0.00638687 92.7978 0.00224361C92.0613 0.00987826 91.0224 0.12191 90.4894 0.251367ZM110.578 0.240414C110.077 0.378169 109.219 0.716085 108.672 0.99143C108.124 1.26694 107.321 1.79689 106.886 2.16932C106.452 2.5416 105.797 3.28813 105.431 3.82804C105.065 4.3681 104.575 5.31214 104.341 5.92607C104.042 6.71111 103.893 7.4852 103.837 8.53596C103.781 9.58041 103.838 10.3739 104.026 11.1744C104.173 11.8039 104.535 12.7745 104.829 13.331C105.123 13.8877 105.848 14.8377 106.44 15.4423C107.158 16.1764 107.901 16.7344 108.674 17.1215C109.312 17.4405 110.243 17.8013 110.744 17.9234C111.244 18.0456 112.213 18.1455 112.896 18.1455C113.578 18.1455 114.547 18.0456 115.047 17.9234C115.548 17.8013 116.468 17.4458 117.091 17.1334C117.825 16.7658 118.618 16.1708 119.341 15.4455C120.06 14.7243 120.643 13.9448 120.977 13.2563C121.263 12.6685 121.609 11.7422 121.748 11.1981C121.887 10.6541 122 9.74937 122 9.18756C122 8.62592 121.926 7.76403 121.835 7.27226C121.745 6.78065 121.377 5.78085 121.019 5.05058C120.615 4.22802 120.032 3.38058 119.486 2.82341C119.002 2.32882 118.21 1.66925 117.725 1.35773C117.239 1.04637 116.42 0.639738 115.904 0.454183C115.259 0.222488 114.421 0.0970138 113.227 0.0535295C112.016 0.0093813 111.212 0.0659785 110.578 0.240414ZM0 9.11138V17.7473H1.65933H3.3185L3.27331 11.5234C3.24831 8.10012 3.27993 5.31812 3.34349 5.34102C3.40689 5.36376 4.92072 7.45516 6.70752 9.9882C8.49415 12.5212 10.0133 14.5939 10.0835 14.5939C10.1535 14.5939 10.7191 13.8658 11.3405 12.9757C11.962 12.0856 13.4448 9.97609 14.636 8.28784L16.8019 5.2182L16.8453 11.4828L16.8886 17.7473H18.4399C19.9087 17.7473 19.9966 17.7274 20.0911 17.3739C20.1459 17.1684 20.1919 13.2849 20.1931 8.74342L20.1954 0.486381L18.3331 0.48937L16.4708 0.492191L13.3256 4.96742C11.5958 7.42877 10.1257 9.42523 10.0586 9.40415C9.99159 9.38308 8.53619 7.38661 6.82438 4.96759L3.71198 0.569367L1.85599 0.522396L0 0.475428V9.11138ZM25.6581 9.11686V17.7473H31.9484H38.2388V16.4222V15.0969L33.5624 15.053L28.886 15.0088L28.84 12.731L28.794 10.4533L29.1933 10.3528C29.4129 10.2976 29.8062 10.2695 30.0671 10.2904C30.328 10.3115 31.9008 10.3175 33.5624 10.3037L36.5834 10.2787V8.95089V7.62312H32.6934H28.8033V5.38252V3.14191H33.4383H38.0733V1.81415V0.486381H31.8657H25.6581V9.11686ZM73.0457 3.47369C73.5587 3.66621 74.3417 4.15101 74.7857 4.55117C75.2296 4.95132 75.8477 5.75014 76.1593 6.32639C76.6969 7.32072 76.7259 7.45898 76.7259 9.03387C76.7259 10.4717 76.6688 10.8157 76.2987 11.6068C76.0636 12.1091 75.5228 12.8695 75.0967 13.2967C74.6708 13.7239 73.8946 14.2839 73.372 14.5411C72.5324 14.9544 72.2391 15.0088 70.8494 15.0088C69.4925 15.0088 69.148 14.9482 68.3374 14.5673C67.8207 14.3244 67.0571 13.8108 66.6406 13.4258C66.2159 13.0333 65.659 12.2693 65.3726 11.6858C65.0545 11.0378 64.8287 10.2778 64.7737 9.6702C64.7251 9.13362 64.7744 8.2651 64.883 7.74013C65.0086 7.13351 65.3324 6.40921 65.7717 5.7523C66.2086 5.09904 66.7976 4.49125 67.3731 4.09956C67.8739 3.75899 68.6933 3.36713 69.194 3.22871C69.7477 3.07569 70.4978 3.00598 71.1086 3.05046C71.6608 3.09079 72.5326 3.28116 73.0457 3.47369ZM115.49 3.64547C116.136 3.96214 116.816 4.47963 117.34 5.05506C117.842 5.60508 118.312 6.34166 118.53 6.91824C118.784 7.59043 118.892 8.248 118.894 9.14507C118.898 10.2227 118.821 10.5845 118.392 11.502C118.113 12.1005 117.543 12.9299 117.12 13.3543C116.699 13.7768 115.93 14.3219 115.411 14.5657C114.597 14.9484 114.254 15.0088 112.896 15.0088C111.542 15.0088 111.193 14.9477 110.393 14.5715C109.881 14.3308 109.159 13.8593 108.788 13.5234C108.417 13.1875 107.923 12.5863 107.69 12.1873C107.457 11.7885 107.146 10.9932 107 10.4199C106.82 9.71635 106.768 9.07951 106.84 8.45895C106.899 7.95357 107.156 7.09202 107.413 6.54431C107.669 5.99661 108.186 5.23364 108.561 4.84875C108.936 4.46403 109.617 3.95865 110.075 3.72596C110.533 3.49344 111.187 3.23237 111.529 3.14606C111.871 3.05976 112.672 3.02424 113.309 3.06723C114.147 3.12366 114.751 3.28398 115.49 3.64547Z" fill="#4F4F4F"/>
</svg>
