<svg width="217" height="72" viewBox="0 0 217 72" fill="none" xmlns="http://www.w3.org/2000/svg">
<path d="M196.118 20.9811C199.608 24.4968 199.72 29.9973 199.72 33.8533H200.621C200.621 30.054 200.733 24.4968 204.223 20.9811C207.713 17.4653 213.173 17.3519 217 17.3519V16.5013C213.229 16.5013 207.713 16.3879 204.223 12.8722C200.733 9.35643 200.621 3.85598 200.621 0H199.72C199.72 3.79928 199.608 9.35643 196.118 12.8722C192.628 16.3879 187.168 16.5013 183.341 16.5013V17.4086C187.112 17.3519 192.628 17.4653 196.118 20.9811Z" fill="#FECA27"/>
<path d="M196.118 20.9811C199.608 24.4968 199.72 29.9973 199.72 33.8533H200.621C200.621 30.054 200.733 24.4968 204.223 20.9811C207.713 17.4653 213.173 17.3519 217 17.3519V16.5013C213.229 16.5013 207.713 16.3879 204.223 12.8722C200.733 9.35643 200.621 3.85598 200.621 0H199.72C199.72 3.79928 199.608 9.35643 196.118 12.8722C192.628 16.3879 187.168 16.5013 183.341 16.5013V17.4086C187.112 17.3519 192.628 17.4653 196.118 20.9811Z" fill="#FECA27"/>
<path d="M0 71.2V29.045H7.53109V32.901C9.41104 29.8672 12.2366 28.2852 15.186 28.2852C22.0248 28.2852 26.4151 34.2903 26.4151 44.2762C26.4151 54.1996 22.0248 60.3295 15.186 60.3295C12.2985 60.3295 9.41667 58.8779 7.53109 55.7137V71.2H0ZM12.7376 34.9821C10.7281 34.9821 8.53298 36.5018 7.53109 38.5205V50.0261C8.53298 51.9881 10.7281 53.6269 12.7376 53.6269C16.6269 53.6269 18.6363 49.6462 18.6363 44.2705C18.6363 38.9685 16.6269 34.9821 12.7376 34.9821Z" fill="#142369"/>
<path d="M44.5448 56.5342C42.8506 58.9385 39.6536 60.3278 36.5747 60.3278C31.8073 60.3278 27.2256 56.727 27.2256 50.2171C27.2256 43.5145 31.8073 40.356 36.5747 40.356C39.7099 40.356 42.9125 41.5582 44.5448 43.9568V39.9137C44.5448 36.6248 42.5354 34.6061 38.9612 34.6061C36.3271 34.6061 33.7548 35.6835 31.4977 37.895L28.6721 32.7121C31.8748 29.616 36.4509 28.2891 40.3403 28.2891C46.9257 28.2891 52.1378 31.2604 52.1378 39.0972V59.5792H44.5448V56.5342ZM44.5448 48.3855C43.5429 46.554 41.5335 45.4142 39.4622 45.4142C36.6366 45.4142 34.7567 47.4386 34.7567 50.3419C34.7567 53.2509 36.6366 55.2072 39.4622 55.2072C41.5335 55.2072 43.5429 54.1979 44.5448 52.2982V48.3855Z" fill="#142369"/>
<path d="M56.1509 29.0434H63.682V33.2793C65.3762 30.495 68.7028 28.3516 71.9617 28.3516V35.746C71.4608 35.6212 70.8304 35.5589 70.1437 35.5589C67.7571 35.5589 64.9372 37.2033 63.682 39.222V59.5737H56.1509V29.0434Z" fill="#142369"/>
<path d="M77.2978 52.2407V35.6826H73.3466V29.0481H77.2978V20.6953H84.8289V29.0367H89.8496V35.6713H84.8289V50.4601C84.8289 52.4221 85.5832 53.6186 87.0241 53.6186C87.9641 53.6186 88.904 53.2387 89.2812 52.734L90.8515 58.5463C89.7202 59.5557 87.7783 60.3156 85.0147 60.3156C79.7463 60.3269 77.2978 57.6107 77.2978 52.2407Z" fill="#142369"/>
<path d="M103.899 28.2852C112.24 28.2852 116.946 35.1125 116.946 44.5937V46.7428H97.9379C98.2531 50.9164 100.702 54.1996 105.278 54.1996C107.597 54.1996 110.169 53.1279 111.863 51.2283L115.313 55.7817C112.617 58.7531 108.537 60.3352 104.461 60.3352C95.9285 60.3352 90.3449 53.8878 90.3449 44.2818C90.3449 35.4244 95.4895 28.2852 103.899 28.2852ZM97.9379 41.5599H109.668C109.544 38.4014 108.159 34.415 103.769 34.415C99.5702 34.415 98.0617 38.3958 97.9379 41.5599Z" fill="#142369"/>
<path d="M119.208 29.0434H126.739V33.2793C128.434 30.495 131.76 28.3516 135.019 28.3516V35.746C134.518 35.6212 133.888 35.5589 133.201 35.5589C130.815 35.5589 127.995 37.2033 126.739 39.222V59.5737H119.208V29.0434Z" fill="#142369"/>
<path d="M136.274 50.4648C138.909 50.4648 141.104 52.7387 141.104 55.3926C141.104 58.0464 138.909 60.2579 136.274 60.2579C133.64 60.2579 131.383 58.0464 131.383 55.3926C131.383 52.7387 133.64 50.4648 136.274 50.4648Z" fill="#142369"/>
<path d="M144.807 29.0434H152.338V33.2793C154.033 30.495 157.359 28.3516 160.618 28.3516V35.746C160.117 35.6212 159.487 35.5589 158.8 35.5589C156.413 35.5589 153.594 37.2033 152.338 39.222V59.5737H144.807V29.0434Z" fill="#142369"/>
<path d="M179.125 55.7212C177.493 58.1255 174.166 60.3371 170.215 60.3371C164.631 60.3371 162.121 57.2409 162.121 52.1204V29.0469H169.652V49.2114C169.652 52.4323 171.16 53.6344 173.665 53.6344C176.114 53.6344 178.056 51.8029 179.125 49.9032V29.0469H186.656V59.5772H179.125V55.7212Z" fill="#142369"/>
</svg>
