<svg width="123" height="41" viewBox="0 0 123 41" fill="none" xmlns="http://www.w3.org/2000/svg">
<path d="M110.389 11.8406C112.353 13.8248 112.417 16.9289 112.417 19.105H112.923C112.923 16.9609 112.987 13.8248 114.951 11.8406C116.915 9.85654 119.988 9.79253 122.143 9.79253V9.31251C120.02 9.31251 116.915 9.24851 114.951 7.2644C112.987 5.28029 112.923 2.17612 112.923 0H112.417C112.417 2.14412 112.353 5.28029 110.389 7.2644C108.425 9.24851 105.352 9.31251 103.197 9.31251V9.82454C105.32 9.79254 108.425 9.85654 110.389 11.8406Z" fill="#D1D1D1"/>
<path d="M0 40.1772V16.3871H4.23902V18.5633C5.29719 16.8512 6.88762 15.9583 8.54775 15.9583C12.3971 15.9583 14.8683 19.3473 14.8683 24.9828C14.8683 30.5831 12.3971 34.0425 8.54775 34.0425C6.92247 34.0425 5.30036 33.2233 4.23902 31.4376V40.1772H0ZM7.16959 19.7377C6.03855 19.7377 4.80296 20.5954 4.23902 21.7346V28.2278C4.80296 29.335 6.03855 30.2599 7.16959 30.2599C9.3588 30.2599 10.4898 28.0134 10.4898 24.9796C10.4898 21.9874 9.3588 19.7377 7.16959 19.7377Z" fill="#4F4F4F"/>
<path d="M25.0731 31.9024C24.1194 33.2592 22.3199 34.0433 20.5869 34.0433C17.9035 34.0433 15.3246 32.0112 15.3246 28.3374C15.3246 24.5548 17.9035 22.7723 20.5869 22.7723C22.3516 22.7723 24.1543 23.4507 25.0731 24.8044V22.5226C25.0731 20.6665 23.942 19.5273 21.9302 19.5273C20.4475 19.5273 18.9997 20.1353 17.7292 21.3834L16.1388 18.4584C17.9415 16.7111 20.5172 15.9623 22.7064 15.9623C26.4132 15.9623 29.3469 17.6392 29.3469 22.0618V33.6208H25.0731V31.9024ZM25.0731 27.3037C24.5091 26.27 23.3781 25.6268 22.2122 25.6268C20.6218 25.6268 19.5636 26.7693 19.5636 28.4078C19.5636 30.0495 20.6218 31.1535 22.2122 31.1535C23.3781 31.1535 24.5091 30.5839 25.0731 29.5118V27.3037Z" fill="#4F4F4F"/>
<path d="M31.6064 16.388H35.8455V18.7785C36.7991 17.2072 38.6715 15.9976 40.5059 15.9976V20.1706C40.2239 20.1002 39.8691 20.065 39.4825 20.065C38.1392 20.065 36.552 20.993 35.8455 22.1323V33.6177H31.6064V16.388Z" fill="#4F4F4F"/>
<path d="M43.509 29.4798V20.1352H41.2849V16.391H43.509V11.6772H47.748V16.3846H50.574V20.1288H47.748V28.4749C47.748 29.5822 48.1725 30.2574 48.9836 30.2574C49.5127 30.2574 50.0418 30.043 50.254 29.7582L51.1379 33.0384C50.5011 33.608 49.4081 34.0368 47.8525 34.0368C44.8871 34.0432 43.509 32.5103 43.509 29.4798Z" fill="#4F4F4F"/>
<path d="M58.4817 15.9592C63.1769 15.9592 65.8255 19.8122 65.8255 25.1629V26.3758H55.1266C55.304 28.7311 56.6822 30.584 59.2579 30.584C60.5632 30.584 62.011 29.9792 62.9647 28.9071L64.9068 31.4769C63.3892 33.1538 61.0923 34.0466 58.7985 34.0466C53.9956 34.0466 50.8527 30.408 50.8527 24.9869C50.8527 19.9882 53.7484 15.9592 58.4817 15.9592ZM55.1266 23.4508H61.7291C61.6594 21.6683 60.88 19.4186 58.4088 19.4186C56.0454 19.4186 55.1963 21.6651 55.1266 23.4508Z" fill="#4F4F4F"/>
<path d="M67.0993 16.388H71.3383V18.7785C72.2919 17.2072 74.1643 15.9976 75.9987 15.9976V20.1706C75.7167 20.1002 75.3619 20.065 74.9754 20.065C73.6321 20.065 72.0448 20.993 71.3383 22.1323V33.6177H67.0993V16.388Z" fill="#4F4F4F"/>
<path d="M76.7045 28.4795C78.1872 28.4795 79.4228 29.7628 79.4228 31.2604C79.4228 32.7581 78.1872 34.0062 76.7045 34.0062C75.2217 34.0062 73.9513 32.7581 73.9513 31.2604C73.9513 29.7628 75.2217 28.4795 76.7045 28.4795Z" fill="#4F4F4F"/>
<path d="M81.5079 16.388H85.7469V18.7785C86.7005 17.2072 88.5729 15.9976 90.4073 15.9976V20.1706C90.1253 20.1002 89.7705 20.065 89.384 20.065C88.0407 20.065 86.4534 20.993 85.7469 22.1323V33.6177H81.5079V16.388Z" fill="#4F4F4F"/>
<path d="M100.824 31.4428C99.9051 32.7997 98.0327 34.0477 95.8086 34.0477C92.6658 34.0477 91.2528 32.3004 91.2528 29.4107V16.3892H95.4918V27.769C95.4918 29.5867 96.3409 30.2651 97.7507 30.2651C99.1289 30.2651 100.222 29.2315 100.824 28.1594V16.3892H105.063V33.6189H100.824V31.4428Z" fill="#4F4F4F"/>
</svg>
