<svg width="314" height="37" viewBox="0 0 314 37" fill="none" xmlns="http://www.w3.org/2000/svg">
<path d="M3.13176 0.461617C1.91202 1.02204 0.824147 2.17584 0.362625 3.39558C0.131864 4.02193 0 9.88986 0 20.6367V36.9219H7.58215V26.7025H17.6697L20.307 31.8122L22.9113 36.9219H27.2957C29.6693 36.9219 31.6472 36.823 31.6472 36.7241C31.6472 36.5922 30.2956 33.889 28.6144 30.7243L25.6145 24.9223L26.4057 24.4278C30.8561 21.4938 32.834 15.7248 31.6472 9.13164C30.889 5.1098 28.944 2.27474 25.9441 0.956104C24.2629 0.197887 23.9662 0.164925 14.1753 0.0989914C6.26352 0.0330582 3.92294 0.0989914 3.13176 0.461617ZM22.252 7.9119C22.7794 8.1097 23.3069 8.70308 23.6036 9.4613C24.2299 10.9448 24.2959 14.7358 23.7354 15.8567C22.3179 18.5928 20.5707 19.1203 13.1204 19.1203H7.58215V7.58224H14.472C18.2631 7.58224 21.7575 7.71411 22.252 7.9119ZM42.8556 0.296787C39.592 1.28576 37.2514 3.62634 36.2625 6.82403C35.4713 9.39537 34.6142 15.4611 34.6142 18.3951C34.6142 21.2301 35.4054 26.9991 36.0976 29.3397C37.3174 33.3945 39.3942 35.4714 43.2183 36.4604C44.8666 36.8889 46.6138 36.9548 52.218 36.8559C58.6463 36.757 59.3056 36.6581 60.9209 35.9659C65.5691 33.889 67.5801 28.6145 67.5801 18.461C67.5471 7.78004 65.4702 2.5055 60.5583 0.692379C58.8111 0.0660248 58.0529 9.53674e-05 51.163 0.0330582C47.0423 0.0330582 43.3172 0.164925 42.8556 0.296787ZM58.1848 8.34046C60.3935 11.3733 60.3605 26.3069 58.1188 28.5156C57.4595 29.2079 44.7677 29.2408 44.2072 28.5815C42.6578 26.7025 42.0974 15.8567 43.2842 10.7799C43.7787 8.76902 44.0424 8.14267 44.6028 7.9119C44.9984 7.74707 48.1302 7.64818 51.5257 7.68114C57.0969 7.74707 57.7892 7.81301 58.1848 8.34046ZM74.7007 0.725342C73.9754 1.1539 73.0854 2.01101 72.7227 2.63736C72.0634 3.75821 72.0304 4.35159 71.9315 17.5379C71.8656 26.7354 71.9645 31.7133 72.1953 32.6363C72.7557 34.6802 74.2062 36.1637 76.1842 36.5593C78.228 37.0208 92.766 37.0208 95.3703 36.5922C100.447 35.7681 103.051 32.8011 103.414 27.3618C103.645 24.2959 103.15 22.0213 101.865 19.9774L100.909 18.4939L102.128 16.1204C103.315 13.8458 103.348 13.615 103.348 10.4173C103.348 7.68114 103.183 6.79106 102.59 5.43946C101.634 3.36261 100.48 2.14288 98.4032 1.055L96.7549 0.164925L86.3706 0.0660248C76.0853 9.53674e-05 75.9864 9.53674e-05 74.7007 0.725342ZM95.1066 7.97784C95.5681 8.43936 95.8648 10.6481 95.5681 11.67C95.4033 12.2634 94.8758 13.0875 94.4143 13.5491C93.5901 14.3403 93.4583 14.3403 86.6673 14.4391L79.7774 14.538V7.54928L87.3266 7.64818C91.4803 7.71411 94.9747 7.84597 95.1066 7.97784ZM93.6561 22.6806C94.9747 23.2081 95.7 24.6256 95.667 26.5047C95.634 27.6914 95.4692 28.2848 95.0736 28.5815C94.645 28.9112 92.5682 29.0101 87.1288 29.0101H79.7774V22.0213L86.3047 22.1532C89.865 22.2521 93.1945 22.4828 93.6561 22.6806ZM114.458 0.692379C111.26 1.94508 109.645 4.18676 108.392 9.13164C107.765 11.637 107.667 12.9557 107.667 18.461C107.667 24.4608 107.732 25.1201 108.557 28.1859C109.579 31.9111 110.535 33.5264 112.447 34.9439C114.82 36.6252 115.545 36.757 123.952 36.757C132.358 36.757 133.083 36.6252 135.457 34.9439C137.369 33.5264 138.325 31.9111 139.347 28.1859C140.171 25.1201 140.237 24.4608 140.237 18.461C140.237 12.9557 140.138 11.637 139.512 9.13164C138.259 4.12083 136.644 1.91211 133.347 0.692379C131.666 0.0660248 130.842 9.53674e-05 123.853 0.0330582C116.963 0.0330582 116.04 0.0989914 114.458 0.692379ZM130.347 7.9119C131.237 8.24156 131.633 9.2635 132.259 12.9886C133.05 17.5709 132.358 26.208 131.039 28.2189C130.545 29.0101 130.512 29.0101 123.952 29.0101C116.238 29.0101 116.699 29.2408 115.842 24.8564C114.622 18.7906 115.611 8.67012 117.457 7.9119C118.446 7.51631 129.292 7.51631 130.347 7.9119Z" fill="#276EB8"/>
<path d="M146.401 1.0228L145.38 2.04475V34.681L146.336 35.637C147.193 36.4611 147.555 36.593 149.237 36.593C150.852 36.593 151.313 36.4611 151.907 35.8348C153.061 34.615 153.291 33.1975 153.291 27.4614V22.088H158.137L160.577 24.1978C165.456 28.3845 167.137 30.6262 167.137 32.8678C167.137 34.1205 167.302 34.5161 168.258 35.4722C169.247 36.4611 169.576 36.593 171.06 36.593C172.445 36.593 172.906 36.4282 173.796 35.637C174.851 34.7139 174.884 34.5821 174.851 32.1756C174.818 30.0987 174.653 29.3405 173.796 27.5933C172.642 25.2857 169.28 21.165 167.17 19.4837L165.785 18.3958L167.928 16.4508C170.5 14.0773 172.873 11.0115 173.994 8.60496C174.62 7.22039 174.818 6.23141 174.851 4.38533C174.884 2.01178 174.851 1.87992 173.796 0.956871C172.84 0.0997581 172.477 0.000862122 170.631 0.000862122C168.719 0.000862122 168.423 0.0997581 167.829 0.857975C167.368 1.45136 167.137 2.20958 167.137 3.19855C167.137 3.98973 166.939 5.11057 166.675 5.70396C166.115 7.08853 163.61 9.8247 160.577 12.429L158.137 14.5058H153.291V9.13241C153.291 6.19845 153.126 3.23152 152.962 2.5722C152.467 0.792042 151.28 0.000862122 149.138 0.000862122C147.654 0.000862122 147.259 0.132725 146.401 1.0228ZM188.367 0.462383C183.917 1.87992 181.477 5.04464 179.763 11.506C178.972 14.407 178.906 15.3959 178.774 23.7693C178.576 33.659 178.708 34.7469 180.224 35.9337C181.312 36.7908 184.114 36.8238 185.136 35.9996C186.323 35.0436 186.587 34.1205 186.587 30.6921V27.3625H203.729V31.0218C203.729 34.615 203.729 34.681 204.685 35.637C205.542 36.4611 205.905 36.593 207.52 36.593C209.201 36.593 209.498 36.4941 210.388 35.5381L211.344 34.4832L211.245 23.9341C211.113 14.1762 211.048 13.1542 210.388 10.9455C208.806 5.73693 206.498 2.4733 203.399 1.0228C201.685 0.231625 201.224 0.165691 195.652 0.0997581C191.433 0.0338287 189.323 0.132725 188.367 0.462383ZM199.74 7.94564C201.553 8.57199 203.103 12.5609 203.531 17.5387L203.696 19.7804H186.488L186.719 17.1431C187.114 12.4949 188.927 8.14344 190.609 7.81378C192.224 7.51708 198.751 7.61598 199.74 7.94564ZM221.696 0.462383C218.465 1.48433 216.652 3.06669 215.531 5.93472C214.97 7.38522 214.806 8.44013 214.806 11.0444C214.806 16.319 216.388 19.3189 220.113 21.132C221.597 21.8572 222.19 21.9232 228.684 22.088C235.409 22.2528 235.706 22.2858 236.431 23.011C237.387 23.9671 237.486 26.7692 236.596 28.1208L236.036 29.0108H227.168C218.795 29.0108 218.267 29.0438 217.476 29.6702C215.63 31.1207 215.564 34.2854 217.311 35.7688L218.3 36.593H227.893C233.234 36.593 238.047 36.4282 238.706 36.2633C240.519 35.7688 242.464 33.8568 243.684 31.3844C244.706 29.3075 244.772 29.0108 244.772 25.5494C244.772 22.3188 244.673 21.7254 243.915 20.1101C242.827 17.8024 241.343 16.0882 239.728 15.297C238.673 14.7696 237.453 14.6377 230.992 14.5058C222.256 14.3081 222.52 14.4399 222.52 11.0444C222.52 7.61598 222.025 7.78081 232.541 7.58302L241.64 7.41819L242.53 6.52811C243.321 5.73693 243.42 5.34133 243.552 2.83593L243.717 0.000862122L233.365 0.0338287C225.981 0.0338287 222.652 0.165691 221.696 0.462383ZM254.332 0.462383C253.606 0.693146 252.585 1.1217 252.024 1.38543C247.772 3.62711 245.991 11.1433 248.431 16.4838C249.453 18.7255 250.574 19.9123 252.683 21.0331C254.266 21.8902 254.53 21.9232 260.925 22.0221C264.551 22.055 267.914 22.2858 268.408 22.4506C269.562 22.9122 270.122 24.5934 269.826 26.5714C269.463 29.0768 269.727 29.0108 259.738 29.0108H250.804L249.848 29.9668C249.024 30.824 248.892 31.1866 248.892 32.8019C248.892 34.4172 249.024 34.7799 249.848 35.637L250.804 36.593H260.76C271.837 36.593 272.1 36.56 274.408 34.3513C276.419 32.4063 277.342 30.0987 277.507 26.3076C277.705 21.9232 276.88 19.3518 274.441 16.9453C273.353 15.8575 272.265 15.0992 271.441 14.8685C270.716 14.6707 267.419 14.5058 264.024 14.5058C260.628 14.5058 257.431 14.407 256.87 14.3081C255.683 14.0773 255.156 13.0554 255.156 11.0444C255.156 9.03351 255.683 8.01157 256.87 7.78081C257.431 7.68191 261.419 7.58302 265.771 7.58302C276.023 7.58302 276.254 7.45115 276.254 2.4733V0.000862122L265.969 0.0338287C258.617 0.0338287 255.255 0.165691 254.332 0.462383ZM290.462 0.660179C289.506 0.989838 288.188 1.68212 287.561 2.17661C284.924 4.18753 282.551 9.46207 281.891 14.8355C281.397 18.5936 281.43 33.2305 281.891 34.5821C282.353 35.8677 283.671 36.593 285.616 36.593C286.803 36.593 287.331 36.3952 288.188 35.637L289.276 34.681L289.374 31.0218L289.506 27.3625H306.187L306.319 31.0218L306.418 34.681L307.506 35.637C308.363 36.4282 308.857 36.593 310.209 36.593C311.561 36.593 312.055 36.4282 312.912 35.637L314 34.681L313.967 24.3297C313.934 14.8685 313.901 13.8136 313.242 11.44C311.758 6.00065 309.55 2.70406 306.352 1.1217C304.473 0.198658 304.308 0.165691 298.341 0.0997581C292.968 0.000862122 292.045 0.0667915 290.462 0.660179ZM303.649 8.90165C304.967 10.451 305.956 13.7476 306.154 17.0442L306.352 19.7804H289.44V17.7695C289.44 13.5828 291.286 8.70386 293.133 7.91267C293.561 7.74784 295.869 7.64895 298.308 7.68191L302.693 7.74784L303.649 8.90165Z" fill="#D61E2F"/>
</svg>
