<svg width="16" height="16" viewBox="0 0 16 16" fill="none" xmlns="http://www.w3.org/2000/svg">
<g opacity="0.5">
<path fill-rule="evenodd" clip-rule="evenodd" d="M7.5 1C4.46243 1 2 3.46243 2 6.5C2 9.53757 4.46243 12 7.5 12C10.5376 12 13 9.53757 13 6.5C13 3.46243 10.5376 1 7.5 1ZM1 6.5C1 2.91015 3.91015 0 7.5 0C11.0899 0 14 2.91015 14 6.5C14 8.36943 13.2108 10.0545 11.9474 11.2403L15.8536 15.1464C16.0488 15.3417 16.0488 15.6583 15.8536 15.8536C15.6583 16.0488 15.3417 16.0488 15.1464 15.8536L11.1631 11.8702C10.1201 12.5831 8.85873 13 7.5 13C3.91015 13 1 10.0899 1 6.5Z" fill="black"/>
</g>
</svg>
